<?xml version="1.0" encoding="UTF-8" standalone="no"?>
<!-- Created with Inkscape (http://www.inkscape.org/) -->

<svg
   width="103.90186mm"
   height="26.715668mm"
   viewBox="0 0 103.90186 26.715668"
   version="1.1"
   id="svg277"
   inkscape:version="1.1 (c68e22c387, 2021-05-23)"
   sodipodi:docname="daki.svg"
   inkscape:export-filename="C:\Users\knagy3\Desktop\bitmap2.png"
   inkscape:export-xdpi="96"
   inkscape:export-ydpi="96"
   xmlns:inkscape="http://www.inkscape.org/namespaces/inkscape"
   xmlns:sodipodi="http://sodipodi.sourceforge.net/DTD/sodipodi-0.dtd"
   xmlns="http://www.w3.org/2000/svg"
   xmlns:svg="http://www.w3.org/2000/svg">
  <sodipodi:namedview
     id="namedview279"
     pagecolor="#ffffff"
     bordercolor="#666666"
     borderopacity="1.0"
     inkscape:pageshadow="2"
     inkscape:pageopacity="0.0"
     inkscape:pagecheckerboard="0"
     inkscape:document-units="mm"
     showgrid="false"
     inkscape:object-nodes="true"
     inkscape:snap-smooth-nodes="false"
     inkscape:zoom="17.577516"
     inkscape:cx="288.522"
     inkscape:cy="94.410382"
     inkscape:window-width="1366"
     inkscape:window-height="705"
     inkscape:window-x="-8"
     inkscape:window-y="-8"
     inkscape:window-maximized="1"
     inkscape:current-layer="layer1"
     inkscape:object-paths="true"
     inkscape:lockguides="false"
     fit-margin-top="0"
     fit-margin-left="0"
     fit-margin-right="0"
     fit-margin-bottom="0" />
  <defs
     id="defs274">
    <linearGradient
       id="linearGradient8130"
       inkscape:swatch="solid">
      <stop
         style="stop-color:#f1ffff;stop-opacity:1;"
         offset="0"
         id="stop8128" />
    </linearGradient>
    <linearGradient
       id="linearGradient6397"
       inkscape:swatch="solid">
      <stop
         style="stop-color:#000000;stop-opacity:1;"
         offset="0"
         id="stop6395" />
    </linearGradient>
    <linearGradient
       id="linearGradient2585"
       inkscape:swatch="solid">
      <stop
         style="stop-color:#ffffff;stop-opacity:1;"
         offset="0"
         id="stop2583" />
    </linearGradient>
  </defs>
  <g
     inkscape:label="Layer 1"
     inkscape:groupmode="layer"
     id="layer1"
     style="display:inline"
     transform="translate(-18.893224,-57.486203)">
    <path
       d="m 39.222122,75.796798 v 2.183527 h -20.32881 v 1.871715 h 20.32881 1.583214 0.100409 v -4.055242 -1.871742 h -1.683623 -20.32881 v 1.871742 z"
       style="fill:#0e1037;fill-rule:evenodd;stroke-width:0.264583"
       id="path281" />
    <path
       d="m 44.940773,61.43921 -7.94e-4,0.136525 -0.0038,1.897301 h -0.0065 l -0.110834,20.332832 -0.123164,-5.29e-4 -1.59e-4,0.05882 -25.802298,-0.05554 0.0042,-2.123122 23.885551,0.05136 0.09943,-18.268236 -23.973975,-0.05106 0.0042,-2.123123 26.027777,0.05546 -2.12e-4,0.0893 z"
       style="fill:#565757;fill-rule:evenodd;stroke-width:0.264583"
       id="path283" />
    <path
       d="m 48.828243,60.703298 h 0.761603 V 84.20187 h -0.761603 z"
       style="fill:#0e1037;fill-rule:evenodd;stroke-width:0.264583"
       id="path285" />
    <path
       d="m 91.940112,76.884209 h -2.719467 v -14.22527 h 2.719467 z"
       style="fill:#0e1037;fill-rule:evenodd;stroke-width:0.264583"
       id="path287" />
    <path
       d="m 93.524411,70.071347 h 5.10204 v 2.605855 h -5.10204 z"
       style="fill:#0e1037;fill-rule:evenodd;stroke-width:0.264583"
       id="path289" />
    <path
       d="m 110.24785,65.175868 h -6.93523 v 3.020959 h 6.36765 v 2.470812 h -6.36765 v 3.66006 h 7.25694 v 2.55651 h -9.93386 v -14.22527 h 9.61215 z"
       style="fill:#0e1037;fill-rule:evenodd;stroke-width:0.264583"
       id="path291" />
    <path
       id="path10570"
       style="fill:#0e1037;fill-rule:evenodd;stroke-width:0.264583"
       d="m 112.76676,62.658706 v 14.22549 h 2.71973 v -5.115968 h 2.78329 c 1.45381,0 2.57074,-0.346167 3.3538,-1.041281 0.78002,-0.695113 1.17151,-1.880944 1.17151,-3.561021 0,-1.5385 -0.39149,-2.675176 -1.17151,-3.406511 -0.78306,-0.734668 -1.83346,-1.100709 -3.15071,-1.100709 z m 2.71973,2.471169 h 2.5523 c 0.0808,0 0.15938,0.0024 0.23564,0.0072 0.0763,0.0048 0.15049,0.01199 0.22221,0.0217 0.0717,0.0097 0.14105,0.02207 0.20826,0.03669 0.0672,0.01463 0.13212,0.0316 0.19482,0.05116 0.0627,0.01955 0.12319,0.04163 0.18138,0.06615 0.0582,0.02453 0.11424,0.05164 0.16795,0.08113 0.0537,0.0295 0.10528,0.0611 0.15451,0.0956 0.0492,0.0345 0.0958,0.07157 0.14056,0.111104 0.0451,0.03954 0.0877,0.08254 0.12713,0.128675 0.0395,0.04613 0.0763,0.09557 0.11007,0.148312 0.0338,0.05274 0.0644,0.108593 0.0925,0.167947 0.0281,0.05936 0.0535,0.122115 0.076,0.188103 0.0225,0.06599 0.0421,0.135622 0.0589,0.208256 0.0168,0.07264 0.0312,0.148598 0.0424,0.227893 0.0112,0.07929 0.0192,0.161563 0.0248,0.247531 0.006,0.08597 0.009,0.175546 0.009,0.2682 0,0.09224 -0.003,0.1811 -0.009,0.267166 -0.006,0.08607 -0.0136,0.169191 -0.0248,0.249082 -0.0112,0.07989 -0.0255,0.156762 -0.0424,0.230475 -0.0168,0.07372 -0.0364,0.144339 -0.0589,0.211873 -0.0225,0.06754 -0.0478,0.131911 -0.076,0.193271 -0.0281,0.06136 -0.0587,0.119485 -0.0925,0.174667 -0.0338,0.05518 -0.0706,0.107577 -0.11007,0.15658 -0.0395,0.049 -0.082,0.09464 -0.12713,0.137459 -0.0448,0.04242 -0.0913,0.08221 -0.14056,0.119372 -0.0492,0.03716 -0.1008,0.07198 -0.15451,0.103871 -0.0537,0.03189 -0.10975,0.06073 -0.16795,0.08733 -0.0582,0.0266 -0.11869,0.05104 -0.18138,0.07234 -0.0627,0.0213 -0.12762,0.03981 -0.19482,0.05581 -0.0672,0.01601 -0.13653,0.02911 -0.20826,0.03979 -0.0717,0.01069 -0.14595,0.01894 -0.22221,0.02429 -0.0763,0.0053 -0.15484,0.0078 -0.23564,0.0078 h -2.5523 z" />
    <path
       d="m 66.690475,76.735778 h 6.207258 l -0.760016,-2.225516 h -4.560226 z"
       style="fill:#0e1037;fill-rule:evenodd;stroke-width:0.264583"
       id="path297" />
    <path
       d="m 69.686934,66.743392 -1.493255,5.162285 3.18561,-0.05159 z"
       style="fill:#0e1037;fill-rule:evenodd;stroke-width:0.264583"
       id="path299" />
    <path
       id="path10653"
       style="fill:#0e1037;fill-rule:evenodd;stroke-width:0.264583"
       d="m 54.654029,62.996672 v 14.19448 h 5.895763 c 2.069703,0 3.597301,-0.884203 4.589383,-2.64945 0.72898,-1.308338 1.093473,-2.906395 1.093473,-4.796605 2e-6,-0.74295 -0.08565,-1.52527 -0.259932,-2.347145 -0.171212,-0.821796 -0.49761,-1.587651 -0.973066,-2.294432 -0.595869,-0.871141 -1.372265,-1.472724 -2.332676,-1.801442 -0.561022,-0.190633 -1.267737,-0.292256 -2.117182,-0.305406 z m 2.776574,2.465482 h 2.637565 c 0.08122,0 0.160375,0.0016 0.238228,0.0047 0.07785,0.003 0.153924,0.0074 0.22841,0.01344 0.07448,0.006 0.147473,0.0132 0.218591,0.02223 0.07112,0.009 0.140507,0.02 0.208256,0.03204 0.06775,0.01204 0.134054,0.02524 0.198437,0.04031 0.06438,0.01505 0.127088,0.03152 0.188103,0.04961 0.06102,0.01807 0.120118,0.0378 0.177766,0.05891 0.05765,0.02111 0.11367,0.04408 0.167949,0.06822 0.05428,0.02413 0.106702,0.04982 0.157613,0.077 0.05091,0.02717 0.10025,0.05558 0.147793,0.08578 0.04755,0.03021 0.09328,0.06184 0.137462,0.09509 0.04418,0.03325 0.08683,0.0681 0.12764,0.104386 0.04081,0.03629 0.07987,0.07435 0.117306,0.113686 0.03744,0.03934 0.07341,0.08009 0.107487,0.122473 0.03407,0.04238 0.06645,0.08634 0.09715,0.131776 0.0307,0.04543 0.05948,0.09207 0.08682,0.14056 0.05467,0.09656 0.106244,0.198363 0.153996,0.305408 0.04775,0.107043 0.09195,0.219385 0.132807,0.336931 0.04086,0.117544 0.07815,0.240395 0.112139,0.368451 0.03399,0.128058 0.06433,0.261395 0.09147,0.399976 0.02714,0.138581 0.05099,0.282382 0.07131,0.431498 0.02032,0.14912 0.03712,0.303353 0.05064,0.463021 0.01352,0.159668 0.02373,0.324832 0.03049,0.495062 0.0067,0.170228 0.01035,0.345779 0.01035,0.526582 0,0.130662 -0.0021,0.259273 -0.0067,0.385506 -0.0046,0.126232 -0.01159,0.25029 -0.02066,0.37207 -0.0091,0.12178 -0.02048,0.241334 -0.03411,0.358635 -0.01363,0.1173 -0.02942,0.231888 -0.04754,0.34468 -0.01812,0.112795 -0.03835,0.223502 -0.06098,0.331764 -0.02262,0.108262 -0.04781,0.214106 -0.07493,0.31781 -0.02711,0.103706 -0.05626,0.205253 -0.08785,0.304374 -0.03159,0.09912 -0.06523,0.19591 -0.101288,0.290422 -0.03328,0.08629 -0.06842,0.170249 -0.104902,0.251148 -0.03648,0.0809 -0.07453,0.159107 -0.114205,0.234611 -0.03967,0.0755 -0.08116,0.147963 -0.124023,0.218075 -0.04286,0.07011 -0.08727,0.137853 -0.133326,0.20257 -0.04606,0.06472 -0.09338,0.126712 -0.142627,0.186037 -0.04925,0.05932 -0.100515,0.115567 -0.152961,0.169497 -0.05245,0.05393 -0.106108,0.105458 -0.161747,0.153996 -0.05564,0.04854 -0.113247,0.09432 -0.172083,0.137459 -0.05884,0.04315 -0.118837,0.08369 -0.180869,0.121441 -0.06203,0.03775 -0.125979,0.07254 -0.191201,0.104902 -0.06522,0.03236 -0.132088,0.06192 -0.200504,0.08888 -0.06842,0.02696 -0.138194,0.05129 -0.209807,0.07286 -0.07161,0.02156 -0.144819,0.04066 -0.219625,0.05684 -0.07481,0.01617 -0.151442,0.02952 -0.229444,0.04031 -0.078,0.0108 -0.157549,0.01889 -0.238744,0.02429 -0.0812,0.0054 -0.163658,0.0083 -0.248047,0.0083 h -2.637565 z" />
    <path
       d="m 106.42647,59.81197 -1.27315,1.734767 -1.05542,-0.833147 0.63238,-0.861642 c -0.30601,-0.242914 -0.50226,-0.618225 -0.50226,-1.039309 0,-0.732552 0.59386,-1.326436 1.32636,-1.326436 0.7325,0 1.32633,0.593884 1.32633,1.326436 0,0.398594 -0.17592,0.756179 -0.45424,0.999331 z"
       style="fill:#0e1037;fill-rule:evenodd;stroke-width:0.264583"
       id="path305" />
    <path
       d="m 79.004871,62.658939 h 0.01482 v 5.857425 l 5.059521,-5.857425 h 3.538908 l -5.369084,5.857425 5.645256,8.367845 h -3.520678 l -4.045823,-6.21657 -1.3081,1.459415 v 4.757155 h -2.683854 -0.0083 v -0.02363 l -4.967181,-14.212491 7.644764,0.0092 z"
       style="fill:#0e1037;fill-rule:evenodd;stroke-width:0.264583"
       id="path307" />
    <path
       d="m 60.793098,83.074401 h -0.443494 v -2.525289 h 0.443494 z"
       style="fill:#0e1037;fill-rule:evenodd;stroke-width:0.264583"
       id="path309" />
    <path
       d="m 65.129143,82.68922 h 0.0123 v -2.140108 h 0.443468 v 2.525289 H 65.030585 L 62.43153,80.91294 h -0.01244 v 2.161461 h -0.44341 v -2.525289 h 0.554249 z"
       style="fill:#0e1037;fill-rule:evenodd;stroke-width:0.264583"
       id="path311" />
    <path
       id="path10778"
       style="fill:#0e1037;fill-rule:evenodd;stroke-width:0.264583"
       d="m 66.706006,80.549088 v 2.525426 h 1.447456 c 0.271039,0 0.542843,-0.02625 0.815972,-0.07855 0.272942,-0.05231 0.519367,-0.131363 0.738971,-0.237196 0.219657,-0.105807 0.397266,-0.237313 0.532786,-0.39429 0.135467,-0.156898 0.203086,-0.341273 0.203086,-0.552939 0,-0.209206 -0.06762,-0.392782 -0.203086,-0.550871 -0.13552,-0.158141 -0.313129,-0.289981 -0.532786,-0.39584 -0.219604,-0.105781 -0.466029,-0.184862 -0.738971,-0.237194 -0.273129,-0.05233 -0.544933,-0.07855 -0.815972,-0.07855 z m 0.443383,0.235643 h 0.862478 c 0.04157,0 0.08228,1.24e-4 0.122473,0.0011 0.04019,7.94e-4 0.07953,0.0024 0.11834,0.0041 0.03881,0.0019 0.07729,0.004 0.114721,0.0067 0.03744,0.0027 0.07402,0.0062 0.110072,0.0098 0.03605,0.0036 0.07126,0.0079 0.105937,0.01241 0.03468,0.0046 0.06902,0.0095 0.102319,0.01498 0.0333,0.0055 0.06575,0.01119 0.09767,0.01757 0.03192,0.0064 0.06299,0.01339 0.09353,0.02066 0.03053,0.0073 0.06066,0.01487 0.08992,0.02273 0.02925,0.0079 0.05781,0.01582 0.08578,0.02429 0.02797,0.0085 0.05496,0.0173 0.08165,0.02635 0.02669,0.0091 0.05314,0.01826 0.07855,0.02791 0.0254,0.0097 0.04977,0.01971 0.0739,0.02997 0.02413,0.01027 0.04796,0.02066 0.0708,0.03152 0.02283,0.01085 0.04511,0.02214 0.06666,0.03359 0.02156,0.01146 0.04227,0.0231 0.06253,0.03514 0.02027,0.01204 0.03995,0.02424 0.05891,0.03669 0.01897,0.01244 0.03713,0.02537 0.05478,0.03824 0.01765,0.01286 0.03483,0.02601 0.05116,0.03927 0.01632,0.01326 0.03201,0.02663 0.04702,0.04031 0.015,0.01368 0.0292,0.02726 0.04289,0.04134 0.01371,0.01408 0.02689,0.0284 0.03927,0.04289 0.01238,0.0145 0.02408,0.02954 0.03514,0.04444 0.01106,0.0149 0.02125,0.02965 0.03101,0.04496 0.0097,0.01532 0.01887,0.03106 0.02739,0.04651 0.0085,0.01545 0.01646,0.03094 0.02376,0.04651 0.0073,0.01558 0.01405,0.03081 0.02016,0.04651 0.0061,0.01569 0.01167,0.03172 0.01654,0.04754 0.0049,0.01582 0.0093,0.03159 0.01291,0.04754 0.0037,0.01595 0.0069,0.03198 0.0093,0.04806 0.0024,0.01609 0.0039,0.03236 0.0052,0.04857 0.0013,0.01622 0.0021,0.03223 0.0021,0.04857 0,0.01635 -7.94e-4,0.03287 -0.0021,0.04909 -0.0013,0.01622 -0.0027,0.03249 -0.0052,0.04857 -0.0024,0.01609 -0.0056,0.0321 -0.0093,0.04806 -0.0037,0.01595 -0.008,0.03171 -0.01291,0.04754 -0.0049,0.01582 -0.01042,0.03185 -0.01654,0.04754 -0.0061,0.01569 -0.01283,0.03094 -0.02016,0.04651 -0.0073,0.01556 -0.01524,0.03108 -0.02376,0.04651 -0.0085,0.01542 -0.01765,0.03069 -0.02739,0.04599 -0.0098,0.01532 -0.01992,0.03058 -0.03101,0.04548 -0.01106,0.0149 -0.02275,0.02943 -0.03514,0.04392 -0.01238,0.0145 -0.02559,0.02881 -0.03927,0.04289 -0.01371,0.01408 -0.02788,0.02819 -0.04289,0.04186 -0.015,0.01368 -0.0307,0.02705 -0.04702,0.04031 -0.01632,0.01326 -0.03352,0.02643 -0.05116,0.03927 -0.01765,0.01286 -0.03582,0.02527 -0.05478,0.03772 -0.01897,0.01243 -0.03863,0.02466 -0.05891,0.03669 -0.02027,0.01204 -0.04098,0.02421 -0.06253,0.03566 -0.02156,0.01146 -0.04382,0.02222 -0.06666,0.03307 -0.02283,0.01085 -0.04667,0.02178 -0.0708,0.03204 -0.02413,0.01026 -0.04849,0.01979 -0.0739,0.02946 -0.0254,0.0097 -0.05186,0.01937 -0.07855,0.02842 -0.02669,0.0091 -0.05368,0.01789 -0.08165,0.02635 -0.02797,0.0085 -0.05653,0.0164 -0.08578,0.02429 -0.02925,0.0079 -0.05939,0.01545 -0.08992,0.02273 -0.03054,0.0073 -0.06162,0.01429 -0.09353,0.02066 -0.03192,0.0064 -0.06437,0.01212 -0.09767,0.01757 -0.0333,0.0055 -0.06764,0.01042 -0.102319,0.01498 -0.03468,0.0045 -0.06988,0.0088 -0.105937,0.01241 -0.03606,0.0037 -0.07264,0.0066 -0.110072,0.0093 -0.03743,0.0027 -0.07591,0.0054 -0.114721,0.0073 -0.03881,0.0019 -0.07815,0.0032 -0.11834,0.0041 -0.04019,7.94e-4 -0.0809,0.0011 -0.122473,0.0011 h -0.862478 z" />
    <path
       d="m 71.774841,82.838974 h 2.334313 v 0.235427 h -2.777808 v -2.525289 h 2.703883 v 0.235426 h -2.260388 v 0.859578 h 2.112539 v 0.235453 h -2.112539 z"
       style="fill:#0e1037;fill-rule:evenodd;stroke-width:0.264583"
       id="path317" />
    <path
       d="m 78.137276,82.68922 h 0.0123 v -2.140108 h 0.443416 v 2.525289 H 78.038666 L 75.439611,80.91294 h -0.01243 v 2.161461 h -0.443442 v -2.525289 h 0.554355 z"
       style="fill:#0e1037;fill-rule:evenodd;stroke-width:0.264583"
       id="path319" />
    <path
       id="path10861"
       style="fill:#0e1037;fill-rule:evenodd;stroke-width:0.264583"
       d="m 82.793394,80.549088 -1.897041,2.525426 h 0.517798 l 0.480073,-0.663524 h 2.229839 l 0.48059,0.663524 h 0.517281 l -1.897041,-2.525426 z m 0.216009,0.299722 0.942062,1.326534 h -1.890842 z" />
    <path
       d="m 87.86246,82.603628 1.472062,-2.054516 h 0.677466 v 2.525289 H 89.56852 v -2.182866 h -0.0123 l -1.576704,2.182866 H 87.745514 L 86.168809,80.891535 H 86.1564 v 2.182866 h -0.443442 v -2.525289 h 0.677545 z"
       style="fill:#0e1037;fill-rule:evenodd;stroke-width:0.264583"
       id="path325" />
    <path
       d="m 91.638011,83.074401 h -0.443442 v -2.525289 h 0.443442 z"
       style="fill:#0e1037;fill-rule:evenodd;stroke-width:0.264583"
       id="path327" />
    <path
       id="path40"
       style="fill:#0e1037;fill-rule:evenodd;stroke-width:0.999999"
       d="M 285.88086 87.166016 L 285.88086 96.710938 L 290.91016 96.710938 C 292.22926 96.710938 293.28457 96.602416 294.07617 96.386719 C 294.86746 96.171021 295.47142 95.917097 295.89062 95.625 C 296.30953 95.33288 296.5852 95.038688 296.7168 94.742188 C 296.84882 94.445684 296.91602 94.22106 296.91602 94.068359 C 296.91602 93.367359 296.58539 92.808626 295.92578 92.390625 C 295.26608 91.972726 294.35541 91.73554 293.19141 91.681641 L 293.19141 91.654297 C 294.1225 91.528514 294.83915 91.279369 295.34375 90.90625 C 295.84805 90.533437 296.10156 90.087807 296.10156 89.566406 C 296.10156 89.117206 295.9531 88.739093 295.6582 88.433594 C 295.3634 88.127906 294.9668 87.880303 294.4707 87.691406 C 293.9741 87.502619 293.40759 87.368108 292.77148 87.287109 C 292.13499 87.20619 291.47567 87.166016 290.79297 87.166016 L 285.88086 87.166016 z M 287.55664 88.056641 L 290.76953 88.056641 C 290.96735 88.056641 291.15456 88.0608 291.33203 88.068359 C 291.50952 88.076296 291.67687 88.089217 291.83398 88.105469 C 291.9126 88.113406 291.98903 88.122986 292.0625 88.132812 C 292.13601 88.143017 292.20702 88.153921 292.27539 88.166016 C 292.3438 88.17811 292.40939 88.190905 292.47266 88.205078 C 292.53596 88.21944 292.59805 88.235663 292.65625 88.251953 C 292.77262 88.284457 292.88203 88.317875 292.98438 88.353516 C 293.08672 88.389043 293.18124 88.426104 293.26953 88.464844 C 293.35782 88.503546 293.43944 88.544136 293.51367 88.585938 C 293.55071 88.606725 293.58558 88.628658 293.61914 88.650391 C 293.65278 88.671934 293.68476 88.694309 293.71484 88.716797 C 293.77505 88.761811 293.82943 88.806586 293.87891 88.851562 C 293.92842 88.896577 293.9729 88.94139 294.01172 88.986328 C 294.05053 89.031229 294.08325 89.076117 294.11133 89.121094 C 294.1393 89.166108 294.16219 89.210883 294.17969 89.255859 C 294.19707 89.30076 294.2133 89.342938 294.22656 89.382812 C 294.23979 89.422724 294.25107 89.459331 294.25977 89.494141 C 294.26884 89.528912 294.27476 89.562014 294.2793 89.591797 C 294.28345 89.621655 294.28711 89.64911 294.28711 89.673828 C 294.28711 89.712039 294.28234 89.748419 294.2793 89.785156 C 294.2763 89.821818 294.274 89.859268 294.26758 89.894531 C 294.26153 89.929681 294.25359 89.96422 294.24414 89.998047 C 294.23507 90.031685 294.22379 90.063388 294.21094 90.095703 C 294.19847 90.127829 294.18181 90.160603 294.16602 90.191406 C 294.15014 90.22202 294.13428 90.251959 294.11523 90.28125 C 294.09634 90.31073 294.07484 90.33937 294.05273 90.367188 C 294.03081 90.395156 294.00763 90.422913 293.98242 90.449219 C 293.93204 90.502019 293.87806 90.551572 293.82031 90.599609 C 293.7626 90.647609 293.70173 90.693128 293.63672 90.736328 C 293.57171 90.779642 293.50195 90.820899 293.42969 90.859375 C 293.3575 90.897888 293.28257 90.933197 293.20312 90.966797 C 293.12353 91.000435 293.04139 91.033587 292.95703 91.0625 C 292.87263 91.091224 292.7865 91.116549 292.69727 91.140625 C 292.60807 91.164814 292.51591 91.187604 292.42188 91.207031 C 292.32776 91.226307 292.23176 91.243299 292.13281 91.257812 C 292.0339 91.272553 291.93339 91.285725 291.83398 91.296875 C 291.73458 91.307836 291.63509 91.317038 291.53516 91.324219 C 291.43526 91.3314 291.3348 91.336442 291.23438 91.339844 C 291.13395 91.344001 291.03454 91.345703 290.93359 91.345703 L 287.55664 91.345703 L 287.55664 88.056641 z M 287.55859 92.154297 L 290.98047 92.154297 C 291.06485 92.154297 291.14668 92.155057 291.22852 92.15625 C 291.31035 92.157443 291.39141 92.159723 291.4707 92.162109 C 291.55 92.164496 291.62833 92.168295 291.70508 92.171875 C 291.78183 92.175455 291.85743 92.17882 291.93164 92.183594 C 292.00585 92.188367 292.07873 92.193252 292.15039 92.199219 C 292.22205 92.205186 292.29221 92.211589 292.36133 92.21875 C 292.43044 92.225911 292.49788 92.233833 292.56445 92.242188 C 292.59774 92.246365 292.63141 92.251384 292.66406 92.255859 C 292.69671 92.260335 292.72971 92.264757 292.76172 92.269531 C 292.79373 92.274306 292.82409 92.27813 292.85547 92.283203 C 292.88684 92.288276 292.91848 92.29541 292.94922 92.300781 C 292.97996 92.306153 293.01091 92.310736 293.04102 92.316406 C 293.07112 92.322076 293.09944 92.328016 293.12891 92.333984 C 293.15837 92.339953 293.18797 92.345295 293.2168 92.351562 C 293.24563 92.35783 293.27454 92.364528 293.30273 92.371094 C 293.33093 92.377659 293.35916 92.383761 293.38672 92.390625 C 293.41427 92.397489 293.44183 92.404946 293.46875 92.412109 C 293.49567 92.419272 293.52255 92.428085 293.54883 92.435547 C 293.57511 92.443009 293.59936 92.449271 293.625 92.457031 C 293.65064 92.464792 293.67616 92.47241 293.70117 92.480469 C 293.72618 92.488528 293.75102 92.497502 293.77539 92.505859 C 293.79976 92.514217 293.82392 92.522594 293.84766 92.53125 C 293.87139 92.539906 293.89487 92.549639 293.91797 92.558594 C 293.94107 92.567549 293.96387 92.576684 293.98633 92.585938 C 294.00879 92.595191 294.03091 92.603728 294.05273 92.613281 C 294.07456 92.622831 294.09605 92.632712 294.11719 92.642578 C 294.13833 92.652444 294.15923 92.661693 294.17969 92.671875 C 294.20015 92.682057 294.22046 92.692628 294.24023 92.703125 C 294.26001 92.713622 294.27973 92.725515 294.29883 92.736328 C 294.31792 92.747141 294.33705 92.756449 294.35547 92.767578 C 294.37388 92.778707 294.39047 92.791289 294.4082 92.802734 C 294.42594 92.814179 294.44389 92.82613 294.46094 92.837891 C 294.47799 92.849651 294.49535 92.86097 294.51172 92.873047 C 294.52809 92.885124 294.54291 92.897764 294.55859 92.910156 C 294.57428 92.922549 294.59046 92.934557 294.60547 92.947266 C 294.62047 92.959974 294.63607 92.973304 294.65039 92.986328 C 294.66471 92.999353 294.67776 93.01205 294.69141 93.025391 C 294.70505 93.038731 294.71751 93.05275 294.73047 93.066406 C 294.74343 93.080062 294.75725 93.09345 294.76953 93.107422 C 294.78181 93.121394 294.79309 93.136103 294.80469 93.150391 C 294.81628 93.164679 294.82698 93.178755 294.83789 93.193359 C 294.84881 93.207963 294.86086 93.221408 294.87109 93.236328 C 294.88133 93.251248 294.89084 93.267967 294.90039 93.283203 C 294.90994 93.298439 294.91887 93.312573 294.92773 93.328125 C 294.9366 93.343677 294.94494 93.359132 294.95312 93.375 C 294.96131 93.390868 294.96906 93.407645 294.97656 93.423828 C 294.98407 93.440012 294.99122 93.456157 294.99805 93.472656 C 295.00487 93.489156 295.01144 93.506622 295.01758 93.523438 C 295.02372 93.540253 295.0297 93.557087 295.03516 93.574219 C 295.04061 93.59135 295.04601 93.607553 295.05078 93.625 C 295.05556 93.642447 295.06036 93.659971 295.06445 93.677734 C 295.06855 93.695498 295.07081 93.714342 295.07422 93.732422 C 295.07763 93.750501 295.08126 93.768714 295.08398 93.787109 C 295.08671 93.805505 295.08975 93.823085 295.0918 93.841797 C 295.09384 93.860508 295.09434 93.87941 295.0957 93.898438 C 295.09707 93.917465 295.09893 93.937688 295.09961 93.957031 C 295.10029 93.976375 295.10156 93.995966 295.10156 94.015625 C 295.10156 94.035281 295.10049 94.054913 295.09961 94.074219 C 295.09873 94.093525 295.09747 94.111904 295.0957 94.130859 C 295.09394 94.149815 295.09053 94.168895 295.08789 94.1875 C 295.08525 94.206105 295.0836 94.223933 295.08008 94.242188 C 295.07655 94.260442 295.07276 94.278971 295.06836 94.296875 C 295.06395 94.314779 295.05802 94.332056 295.05273 94.349609 C 295.04745 94.367163 295.04132 94.385141 295.03516 94.402344 C 295.02899 94.419546 295.02267 94.436274 295.01562 94.453125 C 295.00858 94.469976 295.00206 94.487406 294.99414 94.503906 C 294.98622 94.520406 294.97755 94.536585 294.96875 94.552734 C 294.95995 94.568883 294.95108 94.583812 294.94141 94.599609 C 294.93173 94.615407 294.92071 94.631038 294.91016 94.646484 C 294.8996 94.66193 294.88839 94.678265 294.87695 94.693359 C 294.86552 94.708454 294.85411 94.723539 294.8418 94.738281 C 294.82949 94.753024 294.81592 94.766859 294.80273 94.78125 C 294.78955 94.795641 294.77773 94.81018 294.76367 94.824219 C 294.74963 94.838256 294.73539 94.851493 294.7207 94.865234 C 294.70602 94.878975 294.68915 94.892805 294.67383 94.90625 C 294.65851 94.919695 294.64291 94.934118 294.62695 94.947266 C 294.61099 94.960413 294.59473 94.973477 294.57812 94.986328 C 294.56152 94.999179 294.54458 95.010884 294.52734 95.023438 C 294.51011 95.035991 294.49249 95.048291 294.47461 95.060547 C 294.45673 95.072803 294.44039 95.085698 294.42188 95.097656 C 294.40336 95.109614 294.38439 95.121153 294.36523 95.132812 C 294.34608 95.144472 294.32643 95.154655 294.30664 95.166016 C 294.28685 95.177377 294.26652 95.19011 294.24609 95.201172 C 294.22567 95.212234 294.20466 95.221659 294.18359 95.232422 C 294.16253 95.243185 294.14084 95.255162 294.11914 95.265625 C 294.09744 95.276088 294.07507 95.286712 294.05273 95.296875 C 294.0304 95.307038 294.00734 95.316309 293.98438 95.326172 C 293.96141 95.336035 293.93962 95.345906 293.91602 95.355469 C 293.89241 95.365032 293.86799 95.37355 293.84375 95.382812 C 293.81948 95.392082 293.79434 95.401185 293.76953 95.410156 C 293.74472 95.419127 293.72067 95.428828 293.69531 95.4375 C 293.66996 95.446172 293.64309 95.454517 293.61719 95.462891 C 293.59129 95.471264 293.56551 95.480206 293.53906 95.488281 C 293.51262 95.496356 293.48597 95.503942 293.45898 95.511719 C 293.432 95.519495 293.40448 95.527678 293.37695 95.535156 C 293.34942 95.542634 293.32299 95.549461 293.29492 95.556641 C 293.26685 95.56382 293.2376 95.571244 293.20898 95.578125 C 293.18037 95.585006 293.15221 95.591074 293.12305 95.597656 C 293.09389 95.604239 293.0629 95.610903 293.0332 95.617188 C 293.0035 95.623472 292.9736 95.62878 292.94336 95.634766 C 292.91312 95.640751 292.8843 95.646657 292.85352 95.652344 C 292.82273 95.658031 292.79109 95.664533 292.75977 95.669922 C 292.72844 95.67531 292.69593 95.680457 292.66406 95.685547 C 292.63219 95.690637 292.60077 95.694427 292.56836 95.699219 C 292.53595 95.70401 292.50366 95.708398 292.4707 95.712891 C 292.40473 95.721862 292.33671 95.730431 292.26953 95.738281 C 292.20235 95.746132 292.13479 95.754989 292.06641 95.761719 C 291.99802 95.768448 291.92897 95.773688 291.85938 95.779297 C 291.78978 95.784905 291.72119 95.790435 291.65039 95.794922 C 291.57959 95.799409 291.50757 95.803275 291.43555 95.806641 C 291.36353 95.810006 291.29004 95.812209 291.2168 95.814453 C 291.14356 95.816697 291.07055 95.819191 290.99609 95.820312 C 290.92163 95.821434 290.84717 95.822266 290.77148 95.822266 L 287.55859 95.822266 L 287.55859 92.154297 z "
       transform="matrix(0.26458333,0,0,0.26458333,18.893224,57.486203)" />
    <path
       d="m 98.856506,82.838974 h 2.334364 v 0.235427 h -2.777779 v -2.525289 h 2.703799 v 0.235426 h -2.260384 v 0.859578 h 2.112614 v 0.235453 h -2.112614 z"
       style="fill:#0e1037;fill-rule:evenodd;stroke-width:0.264583"
       id="path335" />
    <path
       style="color:#000000;fill:#0e1037;fill-rule:evenodd;stroke-width:0.264583;-inkscape-stroke:none"
       d="m 103.46362,83.074401 h -0.44342 v -2.289863 h -1.45976 v -0.235426 h 3.36283 v 0.235426 h -1.45965 z"
       id="path337" />
    <path
       id="path10406"
       style="fill:#0e1037;fill-rule:evenodd;stroke-width:0.264583"
       d="m 107.57793,80.485008 c -0.32435,0 -0.62515,0.03317 -0.90227,0.09974 -0.27718,0.06654 -0.51766,0.158729 -0.72089,0.276469 -0.20333,0.117687 -0.36196,0.257408 -0.47697,0.419095 -0.11496,0.161739 -0.1726,0.338642 -0.1726,0.531233 0,0.192643 0.0576,0.370091 0.1726,0.531751 0.11501,0.161687 0.27364,0.301408 0.47697,0.419095 0.20323,0.117687 0.44371,0.209902 0.72089,0.276471 0.27712,0.06662 0.57792,0.09973 0.90227,0.09973 0.3244,0 0.62515,-0.03311 0.90227,-0.09973 0.2772,-0.06657 0.51717,-0.158784 0.72037,-0.276471 0.20322,-0.117687 0.36258,-0.257408 0.47749,-0.419095 0.11509,-0.16166 0.1726,-0.339108 0.1726,-0.531751 0,-0.192591 -0.0575,-0.369494 -0.1726,-0.531233 -0.11491,-0.161687 -0.27427,-0.301408 -0.47749,-0.419095 -0.2032,-0.11774 -0.44317,-0.209926 -0.72037,-0.276469 -0.27712,-0.06657 -0.57787,-0.09974 -0.90227,-0.09974 z m 0,0.235127 c 0.0349,0 0.0694,5.3e-4 0.10335,0.0016 0.034,0.0011 0.0677,0.0024 0.10077,0.0041 0.0331,0.0019 0.0655,0.0044 0.0977,0.0072 0.0322,0.0028 0.0643,0.0061 0.0956,0.0098 0.0313,0.0037 0.0621,0.0078 0.0925,0.01241 0.0304,0.0047 0.0604,0.0094 0.0899,0.01498 0.0295,0.0056 0.0582,0.01159 0.0868,0.0181 0.0286,0.0065 0.057,0.01376 0.0847,0.02119 0.0277,0.0074 0.055,0.01519 0.0816,0.02326 0.0267,0.0081 0.0529,0.01662 0.0786,0.02532 0.0256,0.0087 0.0504,0.01754 0.0749,0.02687 0.0245,0.0093 0.0483,0.01897 0.0718,0.02894 0.0235,0.0099 0.0468,0.0199 0.0693,0.03049 0.0224,0.01058 0.0443,0.02186 0.0656,0.03307 0.0213,0.01122 0.0422,0.02278 0.0625,0.03462 0.0203,0.01185 0.0402,0.02371 0.0594,0.03617 0.0192,0.01249 0.0377,0.02524 0.0558,0.03824 0.0181,0.01299 0.0357,0.0263 0.0527,0.03979 0.017,0.01349 0.0332,0.02736 0.0491,0.04134 0.0159,0.014 0.0312,0.0284 0.046,0.04289 0.0148,0.0145 0.0293,0.02893 0.0429,0.04393 0.0136,0.01497 0.0268,0.0305 0.0393,0.04599 0.0125,0.01551 0.0243,0.03103 0.0357,0.04703 0.0114,0.01601 0.0223,0.03208 0.0326,0.04857 0.0103,0.01648 0.02,0.03343 0.0289,0.05013 0.009,0.01669 0.0171,0.03322 0.0248,0.05013 0.008,0.01691 0.0148,0.03405 0.0212,0.05116 0.006,0.01712 0.0124,0.03436 0.0176,0.05168 0.005,0.0173 0.01,0.03468 0.0134,0.05219 0.004,0.01752 0.007,0.03499 0.009,0.05271 0.003,0.01773 0.005,0.03582 0.006,0.05375 0.001,0.01791 0.002,0.03562 0.002,0.05374 0,0.01815 -2.6e-4,0.03633 -0.002,0.05426 -10e-4,0.01794 -0.004,0.03602 -0.006,0.05375 -0.003,0.01773 -0.005,0.03519 -0.009,0.05271 -0.004,0.01752 -0.008,0.03488 -0.0134,0.05219 -0.005,0.0173 -0.0112,0.03457 -0.0176,0.05168 -0.006,0.01712 -0.0135,0.03426 -0.0212,0.05116 -0.008,0.01691 -0.0158,0.03343 -0.0248,0.05013 -0.009,0.01669 -0.0187,0.03363 -0.0289,0.05012 -0.0103,0.01648 -0.0212,0.03258 -0.0326,0.04857 -0.0114,0.01601 -0.0231,0.03153 -0.0357,0.04703 -0.0125,0.01551 -0.0256,0.031 -0.0393,0.04599 -0.0136,0.015 -0.0281,0.02943 -0.0429,0.04392 -0.0148,0.0145 -0.0301,0.0289 -0.046,0.04289 -0.0159,0.014 -0.0321,0.02786 -0.0491,0.04134 -0.017,0.01349 -0.0346,0.02681 -0.0527,0.03979 -0.0181,0.01299 -0.0366,0.02524 -0.0558,0.03772 -0.0193,0.01249 -0.0391,0.02484 -0.0594,0.03669 -0.0203,0.01185 -0.0412,0.02341 -0.0625,0.03462 -0.0214,0.01122 -0.0432,0.02196 -0.0656,0.03256 -0.0224,0.01058 -0.0458,0.02106 -0.0693,0.03101 -0.0235,0.0099 -0.0473,0.01961 -0.0718,0.02894 -0.0246,0.0093 -0.0493,0.01818 -0.0749,0.02687 -0.0256,0.0087 -0.0519,0.01725 -0.0786,0.02532 -0.0267,0.0081 -0.0539,0.01582 -0.0816,0.02326 -0.0277,0.0074 -0.0561,0.01416 -0.0847,0.02066 -0.0286,0.0065 -0.0573,0.01251 -0.0868,0.0181 -0.0295,0.0056 -0.0595,0.01085 -0.0899,0.0155 -0.0304,0.0047 -0.0612,0.0087 -0.0925,0.01241 -0.0313,0.0037 -0.0634,0.007 -0.0956,0.0098 -0.0322,0.0028 -0.0646,0.0054 -0.0977,0.0072 -0.0331,0.0019 -0.0668,0.0032 -0.10077,0.0041 -0.034,0.0011 -0.0684,0.0011 -0.10335,0.0011 -0.0349,0 -0.0694,-1.03e-4 -0.10336,-0.0011 -0.034,-0.0011 -0.0677,-0.0024 -0.10076,-0.0041 -0.0331,-0.0019 -0.0655,-0.0044 -0.0977,-0.0072 -0.0322,-0.0028 -0.0643,-0.0061 -0.0956,-0.0098 -0.0313,-0.0037 -0.0621,-0.0078 -0.0925,-0.01241 -0.0304,-0.0047 -0.0604,-0.0099 -0.0899,-0.0155 -0.0295,-0.0056 -0.0587,-0.01159 -0.0873,-0.0181 -0.0286,-0.0065 -0.0565,-0.01323 -0.0842,-0.02066 -0.0277,-0.0074 -0.055,-0.01519 -0.0816,-0.02326 -0.0267,-0.0081 -0.0529,-0.01664 -0.0785,-0.02532 -0.0256,-0.0087 -0.0504,-0.01754 -0.0749,-0.02687 -0.0245,-0.0093 -0.0489,-0.019 -0.0723,-0.02894 -0.0235,-0.0099 -0.0463,-0.02043 -0.0687,-0.03101 -0.0224,-0.01058 -0.0443,-0.02133 -0.0656,-0.03256 -0.0213,-0.01122 -0.0422,-0.02278 -0.0625,-0.03462 -0.0203,-0.01185 -0.0402,-0.02421 -0.0594,-0.03669 -0.0192,-0.01249 -0.0377,-0.02474 -0.0558,-0.03772 -0.0181,-0.01299 -0.0357,-0.0263 -0.0527,-0.03979 -0.017,-0.01349 -0.0337,-0.02735 -0.0496,-0.04134 -0.0159,-0.014 -0.0307,-0.0284 -0.0455,-0.04289 -0.0148,-0.0145 -0.0293,-0.02893 -0.0429,-0.04392 -0.0136,-0.015 -0.0268,-0.0305 -0.0393,-0.04599 -0.0125,-0.0155 -0.0243,-0.03103 -0.0357,-0.04703 -0.0114,-0.01601 -0.0223,-0.03208 -0.0326,-0.04857 -0.0103,-0.01648 -0.02,-0.03343 -0.0289,-0.05012 -0.009,-0.01669 -0.0171,-0.03322 -0.0248,-0.05013 -0.008,-0.01691 -0.0148,-0.03405 -0.0212,-0.05116 -0.006,-0.01712 -0.0124,-0.03436 -0.0176,-0.05168 -0.005,-0.0173 -0.01,-0.03467 -0.0134,-0.05219 -0.004,-0.01752 -0.007,-0.03499 -0.01,-0.05271 -0.003,-0.01773 -0.004,-0.03581 -0.006,-0.05375 -0.001,-0.01794 -0.002,-0.03612 -0.002,-0.05426 0,-0.01812 2.7e-4,-0.03582 0.002,-0.05374 0.001,-0.01791 0.003,-0.03602 0.006,-0.05375 0.003,-0.01773 0.006,-0.03519 0.01,-0.05271 0.004,-0.01752 0.008,-0.03488 0.0134,-0.05219 0.005,-0.0173 0.0112,-0.03457 0.0176,-0.05168 0.006,-0.01712 0.0135,-0.03426 0.0212,-0.05116 0.008,-0.01691 0.0158,-0.03343 0.0248,-0.05013 0.009,-0.01669 0.0187,-0.03363 0.0289,-0.05013 0.0103,-0.01651 0.0212,-0.03258 0.0326,-0.04857 0.0114,-0.01601 0.0232,-0.03153 0.0357,-0.04703 0.0125,-0.01548 0.0256,-0.031 0.0393,-0.04599 0.0136,-0.015 0.0281,-0.02944 0.0429,-0.04393 0.0148,-0.0145 0.0296,-0.0289 0.0455,-0.04289 0.0159,-0.014 0.0326,-0.02786 0.0496,-0.04134 0.017,-0.01349 0.0346,-0.0268 0.0527,-0.03979 0.0181,-0.01299 0.0366,-0.02574 0.0558,-0.03824 0.0193,-0.01249 0.0391,-0.02432 0.0594,-0.03617 0.0203,-0.01185 0.0412,-0.02341 0.0625,-0.03462 0.0214,-0.01122 0.0432,-0.02249 0.0656,-0.03307 0.0224,-0.01058 0.0452,-0.02053 0.0687,-0.03049 0.0235,-0.0099 0.0478,-0.01961 0.0723,-0.02894 0.0246,-0.0093 0.0493,-0.01818 0.0749,-0.02687 0.0256,-0.0087 0.0519,-0.01725 0.0785,-0.02532 0.0267,-0.0081 0.0539,-0.01582 0.0816,-0.02326 0.0277,-0.0074 0.0556,-0.01469 0.0842,-0.02119 0.0286,-0.0065 0.0578,-0.01251 0.0873,-0.0181 0.0295,-0.0056 0.0595,-0.01035 0.0899,-0.01498 0.0304,-0.0047 0.0612,-0.0087 0.0925,-0.01241 0.0313,-0.0037 0.0634,-0.007 0.0956,-0.0098 0.0322,-0.0028 0.0646,-0.0054 0.0977,-0.0072 0.0331,-0.0019 0.0668,-0.0032 0.10076,-0.0041 0.034,-0.0011 0.0685,-0.0016 0.10336,-0.0016 z" />
    <path
       d="m 113.89098,82.68922 h 0.0123 v -2.140108 h 0.44344 v 2.525289 h -0.55435 l -2.59906,-2.161461 h -0.0123 v 2.161461 h -0.4435 v -2.525289 h 0.5543 z"
       style="fill:#0e1037;fill-rule:evenodd;stroke-width:0.264583"
       id="path343" />
    <path
       d="m 57.017547,82.603628 1.472036,-2.054516 h 0.677465 v 2.525289 h -0.443441 v -2.182866 h -0.0123 l -1.576679,2.182866 h -0.234077 l -1.576705,-2.182866 h -0.01241 v 2.182866 h -0.443415 v -2.525289 h 0.677571 z"
       style="fill:#0e1037;fill-rule:evenodd;stroke-width:0.264583"
       id="path345" />
    <path
       d="m 39.253449,67.114946 v 2.286053 h -20.35728 v 1.871715 h 20.35728 1.697381 0.0028 v -1.871715 h -0.0028 V 67.114946 65.243257 H 39.253449 18.893312 v 1.871689 z"
       style="fill:#0e1037;fill-rule:evenodd;stroke-width:0.264583"
       id="path347" />
  </g>
</svg>
