<?xml version="1.0" encoding="UTF-8" standalone="no"?>
<!-- Created with Inkscape (http://www.inkscape.org/) -->

<svg
   width="103.90186mm"
   height="26.715668mm"
   viewBox="0 0 103.90186 26.715668"
   version="1.1"
   id="svg277"
   inkscape:version="1.1 (c68e22c387, 2021-05-23)"
   sodipodi:docname="daki-white.svg"
   inkscape:export-filename="C:\Users\knagy3\Desktop\bitmap2.png"
   inkscape:export-xdpi="96"
   inkscape:export-ydpi="96"
   xmlns:inkscape="http://www.inkscape.org/namespaces/inkscape"
   xmlns:sodipodi="http://sodipodi.sourceforge.net/DTD/sodipodi-0.dtd"
   xmlns="http://www.w3.org/2000/svg"
   xmlns:svg="http://www.w3.org/2000/svg">
  <sodipodi:namedview
     id="namedview279"
     pagecolor="#ffffff"
     bordercolor="#666666"
     borderopacity="1.0"
     inkscape:pageshadow="2"
     inkscape:pageopacity="0.0"
     inkscape:pagecheckerboard="0"
     inkscape:document-units="mm"
     showgrid="false"
     inkscape:object-nodes="true"
     inkscape:snap-smooth-nodes="false"
     inkscape:zoom="3.6203867"
     inkscape:cx="112.83325"
     inkscape:cy="63.114804"
     inkscape:window-width="1366"
     inkscape:window-height="705"
     inkscape:window-x="-8"
     inkscape:window-y="-8"
     inkscape:window-maximized="1"
     inkscape:current-layer="layer1"
     inkscape:object-paths="true"
     inkscape:lockguides="false"
     fit-margin-top="0"
     fit-margin-left="0"
     fit-margin-right="0"
     fit-margin-bottom="0" />
  <defs
     id="defs274">
    <linearGradient
       id="linearGradient8130"
       inkscape:swatch="solid">
      <stop
         style="stop-color:#f1ffff;stop-opacity:1;"
         offset="0"
         id="stop8128" />
    </linearGradient>
    <linearGradient
       id="linearGradient6397"
       inkscape:swatch="solid">
      <stop
         style="stop-color:#000000;stop-opacity:1;"
         offset="0"
         id="stop6395" />
    </linearGradient>
    <linearGradient
       id="linearGradient2585"
       inkscape:swatch="solid">
      <stop
         style="stop-color:#ffffff;stop-opacity:1;"
         offset="0"
         id="stop2583" />
    </linearGradient>
  </defs>
  <g
     inkscape:label="Layer 1"
     inkscape:groupmode="layer"
     id="layer1"
     style="display:inline"
     transform="translate(-18.893224,-57.486203)">
    <path
       d="m 39.222122,75.796798 v 2.183527 h -20.32881 v 1.871715 h 20.32881 1.583214 0.100409 v -4.055242 -1.871742 h -1.683623 -20.32881 v 1.871742 z"
       style="fill:#ffffff;fill-rule:evenodd;stroke-width:0.264583"
       id="path281" />
    <path
       d="m 44.940773,61.43921 -7.94e-4,0.136525 -0.0038,1.897301 h -0.0065 l -0.110834,20.332832 -0.123164,-5.29e-4 -1.59e-4,0.05882 -25.802298,-0.05554 0.0042,-2.123122 23.885551,0.05136 0.09943,-18.268236 -23.973975,-0.05106 0.0042,-2.123123 26.027777,0.05546 -2.12e-4,0.0893 z"
       style="fill:#666666;fill-rule:evenodd;stroke-width:0.264583"
       id="path283" />
    <path
       d="m 48.828243,60.703298 h 0.761603 V 84.20187 h -0.761603 z"
       style="fill:#ffffff;fill-rule:evenodd;stroke-width:0.264583"
       id="path285" />
    <path
       d="m 91.940112,76.884209 h -2.719467 v -14.22527 h 2.719467 z"
       style="fill:#ffffff;fill-rule:evenodd;stroke-width:0.264583"
       id="path287" />
    <path
       d="m 93.524411,70.071347 h 5.10204 v 2.605855 h -5.10204 z"
       style="fill:#ffffff;fill-rule:evenodd;stroke-width:0.264583"
       id="path289" />
    <path
       d="m 110.24785,65.175868 h -6.93523 v 3.020959 h 6.36765 v 2.470812 h -6.36765 v 3.66006 h 7.25694 v 2.55651 h -9.93386 v -14.22527 h 9.61215 z"
       style="fill:#ffffff;fill-rule:evenodd;stroke-width:0.264583"
       id="path291" />
    <path
       id="path10570"
       style="fill:#ffffff;fill-rule:evenodd;stroke-width:0.264583"
       d="m 112.76676,62.658706 v 14.22549 h 2.71973 v -5.115968 h 2.78329 c 1.45381,0 2.57074,-0.346167 3.3538,-1.041281 0.78002,-0.695113 1.17151,-1.880944 1.17151,-3.561021 0,-1.5385 -0.39149,-2.675176 -1.17151,-3.406511 -0.78306,-0.734668 -1.83346,-1.100709 -3.15071,-1.100709 z m 2.71973,2.471169 h 2.5523 c 0.0808,0 0.15938,0.0024 0.23564,0.0072 0.0763,0.0048 0.15049,0.01199 0.22221,0.0217 0.0717,0.0097 0.14105,0.02207 0.20826,0.03669 0.0672,0.01463 0.13212,0.0316 0.19482,0.05116 0.0627,0.01955 0.12319,0.04163 0.18138,0.06615 0.0582,0.02453 0.11424,0.05164 0.16795,0.08113 0.0537,0.0295 0.10528,0.0611 0.15451,0.0956 0.0492,0.0345 0.0958,0.07157 0.14056,0.111104 0.0451,0.03954 0.0877,0.08254 0.12713,0.128675 0.0395,0.04613 0.0763,0.09557 0.11007,0.148312 0.0338,0.05274 0.0644,0.108593 0.0925,0.167947 0.0281,0.05936 0.0535,0.122115 0.076,0.188103 0.0225,0.06599 0.0421,0.135622 0.0589,0.208256 0.0168,0.07264 0.0312,0.148598 0.0424,0.227893 0.0112,0.07929 0.0192,0.161563 0.0248,0.247531 0.006,0.08597 0.009,0.175546 0.009,0.2682 0,0.09224 -0.003,0.1811 -0.009,0.267166 -0.006,0.08607 -0.0136,0.169191 -0.0248,0.249082 -0.0112,0.07989 -0.0255,0.156762 -0.0424,0.230475 -0.0168,0.07372 -0.0364,0.144339 -0.0589,0.211873 -0.0225,0.06754 -0.0478,0.131911 -0.076,0.193271 -0.0281,0.06136 -0.0587,0.119485 -0.0925,0.174667 -0.0338,0.05518 -0.0706,0.107577 -0.11007,0.15658 -0.0395,0.049 -0.082,0.09464 -0.12713,0.137459 -0.0448,0.04242 -0.0913,0.08221 -0.14056,0.119372 -0.0492,0.03716 -0.1008,0.07198 -0.15451,0.103871 -0.0537,0.03189 -0.10975,0.06073 -0.16795,0.08733 -0.0582,0.0266 -0.11869,0.05104 -0.18138,0.07234 -0.0627,0.0213 -0.12762,0.03981 -0.19482,0.05581 -0.0672,0.01601 -0.13653,0.02911 -0.20826,0.03979 -0.0717,0.01069 -0.14595,0.01894 -0.22221,0.02429 -0.0763,0.0053 -0.15484,0.0078 -0.23564,0.0078 h -2.5523 z" />
    <path
       d="m 66.690475,76.735778 h 6.207258 l -0.760016,-2.225516 h -4.560226 z"
       style="fill:#ffffff;fill-rule:evenodd;stroke-width:0.264583"
       id="path297" />
    <path
       d="m 69.686934,66.743392 -1.493255,5.162285 3.18561,-0.05159 z"
       style="fill:#ffffff;fill-rule:evenodd;stroke-width:0.264583"
       id="path299" />
    <path
       id="path10653"
       style="fill:#ffffff;fill-rule:evenodd;stroke-width:0.264583"
       d="m 54.654029,62.996672 v 14.19448 h 5.895763 c 2.069703,0 3.597301,-0.884203 4.589383,-2.64945 0.72898,-1.308338 1.093473,-2.906395 1.093473,-4.796605 2e-6,-0.74295 -0.08565,-1.52527 -0.259932,-2.347145 -0.171212,-0.821796 -0.49761,-1.587651 -0.973066,-2.294432 -0.595869,-0.871141 -1.372265,-1.472724 -2.332676,-1.801442 -0.561022,-0.190633 -1.267737,-0.292256 -2.117182,-0.305406 z m 2.776574,2.465482 h 2.637565 c 0.08122,0 0.160375,0.0016 0.238228,0.0047 0.07785,0.003 0.153924,0.0074 0.22841,0.01344 0.07448,0.006 0.147473,0.0132 0.218591,0.02223 0.07112,0.009 0.140507,0.02 0.208256,0.03204 0.06775,0.01204 0.134054,0.02524 0.198437,0.04031 0.06438,0.01505 0.127088,0.03152 0.188103,0.04961 0.06102,0.01807 0.120118,0.0378 0.177766,0.05891 0.05765,0.02111 0.11367,0.04408 0.167949,0.06822 0.05428,0.02413 0.106702,0.04982 0.157613,0.077 0.05091,0.02717 0.10025,0.05558 0.147793,0.08578 0.04755,0.03021 0.09328,0.06184 0.137462,0.09509 0.04418,0.03325 0.08683,0.0681 0.12764,0.104386 0.04081,0.03629 0.07987,0.07435 0.117306,0.113686 0.03744,0.03934 0.07341,0.08009 0.107487,0.122473 0.03407,0.04238 0.06645,0.08634 0.09715,0.131776 0.0307,0.04543 0.05948,0.09207 0.08682,0.14056 0.05467,0.09656 0.106244,0.198363 0.153996,0.305408 0.04775,0.107043 0.09195,0.219385 0.132807,0.336931 0.04086,0.117544 0.07815,0.240395 0.112139,0.368451 0.03399,0.128058 0.06433,0.261395 0.09147,0.399976 0.02714,0.138581 0.05099,0.282382 0.07131,0.431498 0.02032,0.14912 0.03712,0.303353 0.05064,0.463021 0.01352,0.159668 0.02373,0.324832 0.03049,0.495062 0.0067,0.170228 0.01035,0.345779 0.01035,0.526582 0,0.130662 -0.0021,0.259273 -0.0067,0.385506 -0.0046,0.126232 -0.01159,0.25029 -0.02066,0.37207 -0.0091,0.12178 -0.02048,0.241334 -0.03411,0.358635 -0.01363,0.1173 -0.02942,0.231888 -0.04754,0.34468 -0.01812,0.112795 -0.03835,0.223502 -0.06098,0.331764 -0.02262,0.108262 -0.04781,0.214106 -0.07493,0.31781 -0.02711,0.103706 -0.05626,0.205253 -0.08785,0.304374 -0.03159,0.09912 -0.06523,0.19591 -0.101288,0.290422 -0.03328,0.08629 -0.06842,0.170249 -0.104902,0.251148 -0.03648,0.0809 -0.07453,0.159107 -0.114205,0.234611 -0.03967,0.0755 -0.08116,0.147963 -0.124023,0.218075 -0.04286,0.07011 -0.08727,0.137853 -0.133326,0.20257 -0.04606,0.06472 -0.09338,0.126712 -0.142627,0.186037 -0.04925,0.05932 -0.100515,0.115567 -0.152961,0.169497 -0.05245,0.05393 -0.106108,0.105458 -0.161747,0.153996 -0.05564,0.04854 -0.113247,0.09432 -0.172083,0.137459 -0.05884,0.04315 -0.118837,0.08369 -0.180869,0.121441 -0.06203,0.03775 -0.125979,0.07254 -0.191201,0.104902 -0.06522,0.03236 -0.132088,0.06192 -0.200504,0.08888 -0.06842,0.02696 -0.138194,0.05129 -0.209807,0.07286 -0.07161,0.02156 -0.144819,0.04066 -0.219625,0.05684 -0.07481,0.01617 -0.151442,0.02952 -0.229444,0.04031 -0.078,0.0108 -0.157549,0.01889 -0.238744,0.02429 -0.0812,0.0054 -0.163658,0.0083 -0.248047,0.0083 h -2.637565 z" />
    <path
       d="m 106.42647,59.81197 -1.27315,1.734767 -1.05542,-0.833147 0.63238,-0.861642 c -0.30601,-0.242914 -0.50226,-0.618225 -0.50226,-1.039309 0,-0.732552 0.59386,-1.326436 1.32636,-1.326436 0.7325,0 1.32633,0.593884 1.32633,1.326436 0,0.398594 -0.17592,0.756179 -0.45424,0.999331 z"
       style="fill:#ffffff;fill-rule:evenodd;stroke-width:0.264583"
       id="path305" />
    <path
       d="m 79.004871,62.658939 h 0.01482 v 5.857425 l 5.059521,-5.857425 h 3.538908 l -5.369084,5.857425 5.645256,8.367845 h -3.520678 l -4.045823,-6.21657 -1.3081,1.459415 v 4.757155 h -2.683854 -0.0083 v -0.02363 l -4.967181,-14.212491 7.644764,0.0092 z"
       style="fill:#ffffff;fill-rule:evenodd;stroke-width:0.264583"
       id="path307" />
    <path
       d="m 60.793098,83.074401 h -0.443494 v -2.525289 h 0.443494 z"
       style="fill:#ffffff;fill-rule:evenodd;stroke-width:0.264583"
       id="path309" />
    <path
       d="m 65.129143,82.68922 h 0.0123 v -2.140108 h 0.443468 v 2.525289 H 65.030585 L 62.43153,80.91294 h -0.01244 v 2.161461 h -0.44341 v -2.525289 h 0.554249 z"
       style="fill:#ffffff;fill-rule:evenodd;stroke-width:0.264583"
       id="path311" />
    <path
       id="path10778"
       style="fill:#ffffff;fill-rule:evenodd;stroke-width:0.264583"
       d="m 66.706006,80.549088 v 2.525426 h 1.447456 c 0.271039,0 0.542843,-0.02625 0.815972,-0.07855 0.272942,-0.05231 0.519367,-0.131363 0.738971,-0.237196 0.219657,-0.105807 0.397266,-0.237313 0.532786,-0.39429 0.135467,-0.156898 0.203086,-0.341273 0.203086,-0.552939 0,-0.209206 -0.06762,-0.392782 -0.203086,-0.550871 -0.13552,-0.158141 -0.313129,-0.289981 -0.532786,-0.39584 -0.219604,-0.105781 -0.466029,-0.184862 -0.738971,-0.237194 -0.273129,-0.05233 -0.544933,-0.07855 -0.815972,-0.07855 z m 0.443383,0.235643 h 0.862478 c 0.04157,0 0.08228,1.24e-4 0.122473,0.0011 0.04019,7.94e-4 0.07953,0.0024 0.11834,0.0041 0.03881,0.0019 0.07729,0.004 0.114721,0.0067 0.03744,0.0027 0.07402,0.0062 0.110072,0.0098 0.03605,0.0036 0.07126,0.0079 0.105937,0.01241 0.03468,0.0046 0.06902,0.0095 0.102319,0.01498 0.0333,0.0055 0.06575,0.01119 0.09767,0.01757 0.03192,0.0064 0.06299,0.01339 0.09353,0.02066 0.03053,0.0073 0.06066,0.01487 0.08992,0.02273 0.02925,0.0079 0.05781,0.01582 0.08578,0.02429 0.02797,0.0085 0.05496,0.0173 0.08165,0.02635 0.02669,0.0091 0.05314,0.01826 0.07855,0.02791 0.0254,0.0097 0.04977,0.01971 0.0739,0.02997 0.02413,0.01027 0.04796,0.02066 0.0708,0.03152 0.02283,0.01085 0.04511,0.02214 0.06666,0.03359 0.02156,0.01146 0.04227,0.0231 0.06253,0.03514 0.02027,0.01204 0.03995,0.02424 0.05891,0.03669 0.01897,0.01244 0.03713,0.02537 0.05478,0.03824 0.01765,0.01286 0.03483,0.02601 0.05116,0.03927 0.01632,0.01326 0.03201,0.02663 0.04702,0.04031 0.015,0.01368 0.0292,0.02726 0.04289,0.04134 0.01371,0.01408 0.02689,0.0284 0.03927,0.04289 0.01238,0.0145 0.02408,0.02954 0.03514,0.04444 0.01106,0.0149 0.02125,0.02965 0.03101,0.04496 0.0097,0.01532 0.01887,0.03106 0.02739,0.04651 0.0085,0.01545 0.01646,0.03094 0.02376,0.04651 0.0073,0.01558 0.01405,0.03081 0.02016,0.04651 0.0061,0.01569 0.01167,0.03172 0.01654,0.04754 0.0049,0.01582 0.0093,0.03159 0.01291,0.04754 0.0037,0.01595 0.0069,0.03198 0.0093,0.04806 0.0024,0.01609 0.0039,0.03236 0.0052,0.04857 0.0013,0.01622 0.0021,0.03223 0.0021,0.04857 0,0.01635 -7.94e-4,0.03287 -0.0021,0.04909 -0.0013,0.01622 -0.0027,0.03249 -0.0052,0.04857 -0.0024,0.01609 -0.0056,0.0321 -0.0093,0.04806 -0.0037,0.01595 -0.008,0.03171 -0.01291,0.04754 -0.0049,0.01582 -0.01042,0.03185 -0.01654,0.04754 -0.0061,0.01569 -0.01283,0.03094 -0.02016,0.04651 -0.0073,0.01556 -0.01524,0.03108 -0.02376,0.04651 -0.0085,0.01542 -0.01765,0.03069 -0.02739,0.04599 -0.0098,0.01532 -0.01992,0.03058 -0.03101,0.04548 -0.01106,0.0149 -0.02275,0.02943 -0.03514,0.04392 -0.01238,0.0145 -0.02559,0.02881 -0.03927,0.04289 -0.01371,0.01408 -0.02788,0.02819 -0.04289,0.04186 -0.015,0.01368 -0.0307,0.02705 -0.04702,0.04031 -0.01632,0.01326 -0.03352,0.02643 -0.05116,0.03927 -0.01765,0.01286 -0.03582,0.02527 -0.05478,0.03772 -0.01897,0.01243 -0.03863,0.02466 -0.05891,0.03669 -0.02027,0.01204 -0.04098,0.02421 -0.06253,0.03566 -0.02156,0.01146 -0.04382,0.02222 -0.06666,0.03307 -0.02283,0.01085 -0.04667,0.02178 -0.0708,0.03204 -0.02413,0.01026 -0.04849,0.01979 -0.0739,0.02946 -0.0254,0.0097 -0.05186,0.01937 -0.07855,0.02842 -0.02669,0.0091 -0.05368,0.01789 -0.08165,0.02635 -0.02797,0.0085 -0.05653,0.0164 -0.08578,0.02429 -0.02925,0.0079 -0.05939,0.01545 -0.08992,0.02273 -0.03054,0.0073 -0.06162,0.01429 -0.09353,0.02066 -0.03192,0.0064 -0.06437,0.01212 -0.09767,0.01757 -0.0333,0.0055 -0.06764,0.01042 -0.102319,0.01498 -0.03468,0.0045 -0.06988,0.0088 -0.105937,0.01241 -0.03606,0.0037 -0.07264,0.0066 -0.110072,0.0093 -0.03743,0.0027 -0.07591,0.0054 -0.114721,0.0073 -0.03881,0.0019 -0.07815,0.0032 -0.11834,0.0041 -0.04019,7.94e-4 -0.0809,0.0011 -0.122473,0.0011 h -0.862478 z" />
    <path
       d="m 71.774841,82.838974 h 2.334313 v 0.235427 h -2.777808 v -2.525289 h 2.703883 v 0.235426 h -2.260388 v 0.859578 h 2.112539 v 0.235453 h -2.112539 z"
       style="fill:#ffffff;fill-rule:evenodd;stroke-width:0.264583"
       id="path317" />
    <path
       d="m 78.137276,82.68922 h 0.0123 v -2.140108 h 0.443416 v 2.525289 H 78.038666 L 75.439611,80.91294 h -0.01243 v 2.161461 h -0.443442 v -2.525289 h 0.554355 z"
       style="fill:#ffffff;fill-rule:evenodd;stroke-width:0.264583"
       id="path319" />
    <path
       id="path10861"
       style="fill:#ffffff;fill-rule:evenodd;stroke-width:0.264583"
       d="m 82.793394,80.549088 -1.897041,2.525426 h 0.517798 l 0.480073,-0.663524 h 2.229839 l 0.48059,0.663524 h 0.517281 l -1.897041,-2.525426 z m 0.216009,0.299722 0.942062,1.326534 h -1.890842 z" />
    <path
       d="m 87.86246,82.603628 1.472062,-2.054516 h 0.677466 v 2.525289 H 89.56852 v -2.182866 h -0.0123 l -1.576704,2.182866 H 87.745514 L 86.168809,80.891535 H 86.1564 v 2.182866 h -0.443442 v -2.525289 h 0.677545 z"
       style="fill:#ffffff;fill-rule:evenodd;stroke-width:0.264583"
       id="path325" />
    <path
       d="m 91.638011,83.074401 h -0.443442 v -2.525289 h 0.443442 z"
       style="fill:#ffffff;fill-rule:evenodd;stroke-width:0.264583"
       id="path327" />
    <path
       id="path1464"
       style="fill:#ffffff;fill-rule:evenodd;stroke-width:0.999999"
       d="m 285.88086,87.166016 v 9.544922 h 5.0293 c 1.3191,0 2.37441,-0.108522 3.16601,-0.324219 0.79129,-0.215698 1.39525,-0.469622 1.81445,-0.761719 0.41891,-0.29212 0.69458,-0.586312 0.82618,-0.882812 0.13202,-0.296504 0.19922,-0.521128 0.19922,-0.673829 0,-0.701 -0.33063,-1.259733 -0.99024,-1.677734 -0.6597,-0.417899 -1.57037,-0.655085 -2.73437,-0.708984 v -0.02734 c 0.93109,-0.125783 1.64774,-0.374928 2.15234,-0.748047 0.5043,-0.372813 0.75781,-0.818443 0.75781,-1.339844 0,-0.4492 -0.14846,-0.827313 -0.44336,-1.132812 -0.2948,-0.305688 -0.6914,-0.553291 -1.1875,-0.742188 -0.4966,-0.188787 -1.06311,-0.323298 -1.69922,-0.404297 -0.63649,-0.08092 -1.29581,-0.121093 -1.97851,-0.121093 z m 1.67578,0.890625 h 3.21289 c 0.19782,0 0.38503,0.0042 0.5625,0.01172 0.17749,0.0079 0.34484,0.02086 0.50195,0.03711 0.0786,0.0079 0.15505,0.01752 0.22852,0.02734 0.0735,0.0102 0.14452,0.02111 0.21289,0.0332 0.0684,0.01209 0.134,0.02489 0.19727,0.03906 0.0633,0.01436 0.12539,0.03059 0.18359,0.04687 0.11637,0.0325 0.22578,0.06592 0.32813,0.101563 0.10234,0.03553 0.19686,0.07259 0.28515,0.111328 0.0883,0.0387 0.16991,0.07929 0.24414,0.121094 0.037,0.02079 0.0719,0.04272 0.10547,0.06445 0.0336,0.02154 0.0656,0.04392 0.0957,0.06641 0.0602,0.04501 0.11459,0.08979 0.16407,0.134765 0.0495,0.04501 0.094,0.08983 0.13281,0.134766 0.0388,0.0449 0.0715,0.08979 0.0996,0.134766 0.028,0.04501 0.0509,0.08979 0.0684,0.134765 0.0174,0.0449 0.0336,0.08708 0.0469,0.126953 0.0132,0.03991 0.0245,0.07652 0.0332,0.111329 0.009,0.03477 0.015,0.06787 0.0195,0.09766 0.004,0.02986 0.008,0.05731 0.008,0.08203 0,0.03821 -0.005,0.07459 -0.008,0.111328 -0.003,0.03666 -0.005,0.07411 -0.0117,0.109375 -0.006,0.03515 -0.014,0.06969 -0.0234,0.103516 -0.009,0.03364 -0.0204,0.06534 -0.0332,0.09766 -0.0125,0.03213 -0.0291,0.0649 -0.0449,0.0957 -0.0159,0.03061 -0.0317,0.06055 -0.0508,0.08984 -0.0189,0.02948 -0.0404,0.05812 -0.0625,0.08594 -0.0219,0.02797 -0.0451,0.05572 -0.0703,0.08203 -0.0504,0.0528 -0.10436,0.102353 -0.16211,0.15039 -0.0577,0.048 -0.11858,0.09352 -0.18359,0.136719 -0.065,0.04331 -0.13477,0.08457 -0.20703,0.123047 -0.0722,0.03851 -0.14712,0.07382 -0.22657,0.107422 -0.0796,0.03364 -0.16173,0.06679 -0.24609,0.0957 -0.0844,0.02872 -0.17053,0.05405 -0.25976,0.07813 -0.0892,0.02419 -0.18136,0.04698 -0.27539,0.06641 -0.0941,0.01928 -0.19012,0.03627 -0.28907,0.05078 -0.0989,0.01474 -0.19942,0.02791 -0.29883,0.03906 -0.0994,0.01096 -0.19889,0.02016 -0.29882,0.02734 -0.0999,0.0072 -0.20036,0.01222 -0.30078,0.01563 -0.10043,0.0042 -0.19984,0.0059 -0.30079,0.0059 h -3.37695 z m 0.002,4.097656 h 3.42188 c 0.0844,0 0.16621,7.6e-4 0.24805,0.002 0.0818,0.0012 0.16289,0.0035 0.24218,0.0059 0.0793,0.0024 0.15763,0.0062 0.23438,0.0098 0.0768,0.0036 0.15235,0.0069 0.22656,0.01172 0.0742,0.0048 0.14709,0.0097 0.21875,0.01563 0.0717,0.006 0.14182,0.01237 0.21094,0.01953 0.0691,0.0072 0.13655,0.01508 0.20312,0.02344 0.0333,0.0042 0.067,0.0092 0.0996,0.01367 0.0326,0.0045 0.0657,0.0089 0.0977,0.01367 0.032,0.0048 0.0624,0.0086 0.0937,0.01367 0.0314,0.0051 0.063,0.01221 0.0937,0.01758 0.0307,0.0054 0.0617,0.01 0.0918,0.01563 0.0301,0.0057 0.0584,0.01161 0.0879,0.01758 0.0295,0.006 0.0591,0.01131 0.0879,0.01758 0.0288,0.0063 0.0577,0.01297 0.0859,0.01953 0.0282,0.0066 0.0564,0.01267 0.084,0.01953 0.0275,0.0069 0.0551,0.01432 0.082,0.02148 0.0269,0.0072 0.0538,0.01598 0.0801,0.02344 0.0263,0.0075 0.0505,0.01372 0.0762,0.02148 0.0256,0.0078 0.0512,0.01538 0.0762,0.02344 0.025,0.0081 0.0498,0.01703 0.0742,0.02539 0.0244,0.0084 0.0485,0.01673 0.0723,0.02539 0.0237,0.0087 0.0472,0.01839 0.0703,0.02734 0.0231,0.009 0.0459,0.01809 0.0684,0.02734 0.0225,0.0093 0.0446,0.01779 0.0664,0.02734 0.0218,0.0096 0.0433,0.01943 0.0645,0.0293 0.0211,0.0099 0.042,0.01911 0.0625,0.0293 0.0205,0.01018 0.0408,0.02075 0.0605,0.03125 0.0198,0.0105 0.0395,0.02239 0.0586,0.0332 0.0191,0.01081 0.0382,0.02012 0.0566,0.03125 0.0184,0.01113 0.035,0.02371 0.0527,0.03516 0.0177,0.01144 0.0357,0.0234 0.0527,0.03516 0.017,0.01176 0.0344,0.02308 0.0508,0.03516 0.0164,0.01208 0.0312,0.02472 0.0469,0.03711 0.0157,0.01239 0.0319,0.0244 0.0469,0.03711 0.015,0.01271 0.0306,0.02604 0.0449,0.03906 0.0143,0.01302 0.0274,0.02572 0.041,0.03906 0.0136,0.01334 0.0261,0.02736 0.0391,0.04102 0.013,0.01366 0.0268,0.02704 0.0391,0.04102 0.0123,0.01397 0.0236,0.02868 0.0352,0.04297 0.0116,0.01429 0.0223,0.02836 0.0332,0.04297 0.0109,0.0146 0.023,0.02805 0.0332,0.04297 0.0102,0.01492 0.0198,0.03164 0.0293,0.04687 0.01,0.01524 0.0185,0.02937 0.0273,0.04492 0.009,0.01555 0.0172,0.03101 0.0254,0.04687 0.008,0.01587 0.0159,0.03265 0.0234,0.04883 0.008,0.01618 0.0147,0.03233 0.0215,0.04883 0.007,0.0165 0.0134,0.03397 0.0195,0.05078 0.006,0.01682 0.0121,0.03365 0.0176,0.05078 0.005,0.01713 0.0109,0.03333 0.0156,0.05078 0.005,0.01745 0.01,0.03497 0.0137,0.05273 0.004,0.01776 0.006,0.03661 0.01,0.05469 0.003,0.01808 0.007,0.03629 0.01,0.05469 0.003,0.0184 0.006,0.03598 0.008,0.05469 0.002,0.01871 0.003,0.03761 0.004,0.05664 0.001,0.01903 0.003,0.03925 0.004,0.05859 6.8e-4,0.01934 0.002,0.03893 0.002,0.05859 0,0.01966 -0.001,0.03929 -0.002,0.05859 -8.8e-4,0.01931 -0.002,0.03768 -0.004,0.05664 -0.002,0.01896 -0.005,0.03804 -0.008,0.05664 -0.003,0.0186 -0.004,0.03643 -0.008,0.05469 -0.004,0.01825 -0.007,0.03678 -0.0117,0.05469 -0.004,0.0179 -0.0103,0.03518 -0.0156,0.05273 -0.005,0.01755 -0.0114,0.03553 -0.0176,0.05273 -0.006,0.0172 -0.0125,0.03393 -0.0195,0.05078 -0.007,0.01685 -0.0136,0.03428 -0.0215,0.05078 -0.008,0.0165 -0.0166,0.03268 -0.0254,0.04883 -0.009,0.01615 -0.0177,0.03108 -0.0273,0.04687 -0.01,0.0158 -0.0207,0.03143 -0.0312,0.04687 -0.0106,0.01545 -0.0218,0.03178 -0.0332,0.04687 -0.0114,0.0151 -0.0228,0.03018 -0.0352,0.04492 -0.0123,0.01474 -0.0259,0.02858 -0.0391,0.04297 -0.0132,0.01439 -0.025,0.02893 -0.0391,0.04297 -0.014,0.01404 -0.0283,0.02727 -0.043,0.04102 -0.0147,0.01374 -0.0316,0.02757 -0.0469,0.04102 -0.0153,0.01345 -0.0309,0.02787 -0.0469,0.04102 -0.016,0.01315 -0.0322,0.02621 -0.0488,0.03906 -0.0166,0.01285 -0.0335,0.02456 -0.0508,0.03711 -0.0172,0.01255 -0.0349,0.02485 -0.0527,0.03711 -0.0179,0.01226 -0.0342,0.02515 -0.0527,0.03711 -0.0185,0.01196 -0.0375,0.0235 -0.0566,0.03516 -0.0192,0.01166 -0.0388,0.02184 -0.0586,0.0332 -0.0198,0.01136 -0.0401,0.02409 -0.0606,0.03516 -0.0204,0.01106 -0.0414,0.02049 -0.0625,0.03125 -0.0211,0.01076 -0.0427,0.02274 -0.0644,0.0332 -0.0217,0.01046 -0.0441,0.02109 -0.0664,0.03125 -0.0223,0.01016 -0.0454,0.01943 -0.0684,0.0293 -0.023,0.0099 -0.0448,0.01973 -0.0684,0.0293 -0.0236,0.0096 -0.048,0.01808 -0.0723,0.02734 -0.0243,0.0093 -0.0494,0.01837 -0.0742,0.02734 -0.0248,0.009 -0.0489,0.01867 -0.0742,0.02734 -0.0254,0.0087 -0.0522,0.01702 -0.0781,0.02539 -0.0259,0.0084 -0.0517,0.01731 -0.0781,0.02539 -0.0264,0.0081 -0.0531,0.01566 -0.0801,0.02344 -0.027,0.0078 -0.0545,0.01596 -0.082,0.02344 -0.0275,0.0075 -0.054,0.0143 -0.082,0.02148 -0.0281,0.0072 -0.0573,0.0146 -0.0859,0.02148 -0.0286,0.0069 -0.0568,0.01295 -0.0859,0.01953 -0.0292,0.0066 -0.0601,0.01325 -0.0898,0.01953 -0.0297,0.0063 -0.0596,0.01159 -0.0898,0.01758 -0.0302,0.006 -0.0591,0.01189 -0.0898,0.01758 -0.0308,0.0057 -0.0624,0.01219 -0.0937,0.01758 -0.0313,0.0054 -0.0638,0.01054 -0.0957,0.01563 -0.0319,0.0051 -0.0633,0.0089 -0.0957,0.01367 -0.0324,0.0048 -0.0647,0.0092 -0.0977,0.01367 -0.066,0.009 -0.13399,0.01754 -0.20117,0.02539 -0.0672,0.0079 -0.13474,0.01671 -0.20312,0.02344 -0.0684,0.0067 -0.13744,0.01197 -0.20703,0.01758 -0.0696,0.0056 -0.13819,0.01114 -0.20899,0.01563 -0.0708,0.0045 -0.14282,0.0084 -0.21484,0.01172 -0.072,0.0034 -0.14551,0.0056 -0.21875,0.0078 -0.0732,0.0022 -0.14625,0.0047 -0.22071,0.0059 -0.0745,0.0011 -0.14892,0.002 -0.22461,0.002 h -3.21289 z"
       transform="matrix(0.26458333,0,0,0.26458333,18.893224,57.486203)" />
    <path
       d="m 98.856506,82.838974 h 2.334364 v 0.235427 h -2.777779 v -2.525289 h 2.703799 v 0.235426 h -2.260384 v 0.859578 h 2.112614 v 0.235453 h -2.112614 z"
       style="fill:#ffffff;fill-rule:evenodd;stroke-width:0.264583"
       id="path335" />
    <path
       style="color:#000000;fill:#ffffff;fill-rule:evenodd;stroke-width:0.264583;-inkscape-stroke:none"
       d="m 103.46362,83.074401 h -0.44342 v -2.289863 h -1.45976 v -0.235426 h 3.36283 v 0.235426 h -1.45965 z"
       id="path337" />
    <path
       id="path10406"
       style="fill:#ffffff;fill-rule:evenodd;stroke-width:0.264583"
       d="m 107.57793,80.485008 c -0.32435,0 -0.62515,0.03317 -0.90227,0.09974 -0.27718,0.06654 -0.51766,0.158729 -0.72089,0.276469 -0.20333,0.117687 -0.36196,0.257408 -0.47697,0.419095 -0.11496,0.161739 -0.1726,0.338642 -0.1726,0.531233 0,0.192643 0.0576,0.370091 0.1726,0.531751 0.11501,0.161687 0.27364,0.301408 0.47697,0.419095 0.20323,0.117687 0.44371,0.209902 0.72089,0.276471 0.27712,0.06662 0.57792,0.09973 0.90227,0.09973 0.3244,0 0.62515,-0.03311 0.90227,-0.09973 0.2772,-0.06657 0.51717,-0.158784 0.72037,-0.276471 0.20322,-0.117687 0.36258,-0.257408 0.47749,-0.419095 0.11509,-0.16166 0.1726,-0.339108 0.1726,-0.531751 0,-0.192591 -0.0575,-0.369494 -0.1726,-0.531233 -0.11491,-0.161687 -0.27427,-0.301408 -0.47749,-0.419095 -0.2032,-0.11774 -0.44317,-0.209926 -0.72037,-0.276469 -0.27712,-0.06657 -0.57787,-0.09974 -0.90227,-0.09974 z m 0,0.235127 c 0.0349,0 0.0694,5.3e-4 0.10335,0.0016 0.034,0.0011 0.0677,0.0024 0.10077,0.0041 0.0331,0.0019 0.0655,0.0044 0.0977,0.0072 0.0322,0.0028 0.0643,0.0061 0.0956,0.0098 0.0313,0.0037 0.0621,0.0078 0.0925,0.01241 0.0304,0.0047 0.0604,0.0094 0.0899,0.01498 0.0295,0.0056 0.0582,0.01159 0.0868,0.0181 0.0286,0.0065 0.057,0.01376 0.0847,0.02119 0.0277,0.0074 0.055,0.01519 0.0816,0.02326 0.0267,0.0081 0.0529,0.01662 0.0786,0.02532 0.0256,0.0087 0.0504,0.01754 0.0749,0.02687 0.0245,0.0093 0.0483,0.01897 0.0718,0.02894 0.0235,0.0099 0.0468,0.0199 0.0693,0.03049 0.0224,0.01058 0.0443,0.02186 0.0656,0.03307 0.0213,0.01122 0.0422,0.02278 0.0625,0.03462 0.0203,0.01185 0.0402,0.02371 0.0594,0.03617 0.0192,0.01249 0.0377,0.02524 0.0558,0.03824 0.0181,0.01299 0.0357,0.0263 0.0527,0.03979 0.017,0.01349 0.0332,0.02736 0.0491,0.04134 0.0159,0.014 0.0312,0.0284 0.046,0.04289 0.0148,0.0145 0.0293,0.02893 0.0429,0.04393 0.0136,0.01497 0.0268,0.0305 0.0393,0.04599 0.0125,0.01551 0.0243,0.03103 0.0357,0.04703 0.0114,0.01601 0.0223,0.03208 0.0326,0.04857 0.0103,0.01648 0.02,0.03343 0.0289,0.05013 0.009,0.01669 0.0171,0.03322 0.0248,0.05013 0.008,0.01691 0.0148,0.03405 0.0212,0.05116 0.006,0.01712 0.0124,0.03436 0.0176,0.05168 0.005,0.0173 0.01,0.03468 0.0134,0.05219 0.004,0.01752 0.007,0.03499 0.009,0.05271 0.003,0.01773 0.005,0.03582 0.006,0.05375 0.001,0.01791 0.002,0.03562 0.002,0.05374 0,0.01815 -2.6e-4,0.03633 -0.002,0.05426 -10e-4,0.01794 -0.004,0.03602 -0.006,0.05375 -0.003,0.01773 -0.005,0.03519 -0.009,0.05271 -0.004,0.01752 -0.008,0.03488 -0.0134,0.05219 -0.005,0.0173 -0.0112,0.03457 -0.0176,0.05168 -0.006,0.01712 -0.0135,0.03426 -0.0212,0.05116 -0.008,0.01691 -0.0158,0.03343 -0.0248,0.05013 -0.009,0.01669 -0.0187,0.03363 -0.0289,0.05012 -0.0103,0.01648 -0.0212,0.03258 -0.0326,0.04857 -0.0114,0.01601 -0.0231,0.03153 -0.0357,0.04703 -0.0125,0.01551 -0.0256,0.031 -0.0393,0.04599 -0.0136,0.015 -0.0281,0.02943 -0.0429,0.04392 -0.0148,0.0145 -0.0301,0.0289 -0.046,0.04289 -0.0159,0.014 -0.0321,0.02786 -0.0491,0.04134 -0.017,0.01349 -0.0346,0.02681 -0.0527,0.03979 -0.0181,0.01299 -0.0366,0.02524 -0.0558,0.03772 -0.0193,0.01249 -0.0391,0.02484 -0.0594,0.03669 -0.0203,0.01185 -0.0412,0.02341 -0.0625,0.03462 -0.0214,0.01122 -0.0432,0.02196 -0.0656,0.03256 -0.0224,0.01058 -0.0458,0.02106 -0.0693,0.03101 -0.0235,0.0099 -0.0473,0.01961 -0.0718,0.02894 -0.0246,0.0093 -0.0493,0.01818 -0.0749,0.02687 -0.0256,0.0087 -0.0519,0.01725 -0.0786,0.02532 -0.0267,0.0081 -0.0539,0.01582 -0.0816,0.02326 -0.0277,0.0074 -0.0561,0.01416 -0.0847,0.02066 -0.0286,0.0065 -0.0573,0.01251 -0.0868,0.0181 -0.0295,0.0056 -0.0595,0.01085 -0.0899,0.0155 -0.0304,0.0047 -0.0612,0.0087 -0.0925,0.01241 -0.0313,0.0037 -0.0634,0.007 -0.0956,0.0098 -0.0322,0.0028 -0.0646,0.0054 -0.0977,0.0072 -0.0331,0.0019 -0.0668,0.0032 -0.10077,0.0041 -0.034,0.0011 -0.0684,0.0011 -0.10335,0.0011 -0.0349,0 -0.0694,-1.03e-4 -0.10336,-0.0011 -0.034,-0.0011 -0.0677,-0.0024 -0.10076,-0.0041 -0.0331,-0.0019 -0.0655,-0.0044 -0.0977,-0.0072 -0.0322,-0.0028 -0.0643,-0.0061 -0.0956,-0.0098 -0.0313,-0.0037 -0.0621,-0.0078 -0.0925,-0.01241 -0.0304,-0.0047 -0.0604,-0.0099 -0.0899,-0.0155 -0.0295,-0.0056 -0.0587,-0.01159 -0.0873,-0.0181 -0.0286,-0.0065 -0.0565,-0.01323 -0.0842,-0.02066 -0.0277,-0.0074 -0.055,-0.01519 -0.0816,-0.02326 -0.0267,-0.0081 -0.0529,-0.01664 -0.0785,-0.02532 -0.0256,-0.0087 -0.0504,-0.01754 -0.0749,-0.02687 -0.0245,-0.0093 -0.0489,-0.019 -0.0723,-0.02894 -0.0235,-0.0099 -0.0463,-0.02043 -0.0687,-0.03101 -0.0224,-0.01058 -0.0443,-0.02133 -0.0656,-0.03256 -0.0213,-0.01122 -0.0422,-0.02278 -0.0625,-0.03462 -0.0203,-0.01185 -0.0402,-0.02421 -0.0594,-0.03669 -0.0192,-0.01249 -0.0377,-0.02474 -0.0558,-0.03772 -0.0181,-0.01299 -0.0357,-0.0263 -0.0527,-0.03979 -0.017,-0.01349 -0.0337,-0.02735 -0.0496,-0.04134 -0.0159,-0.014 -0.0307,-0.0284 -0.0455,-0.04289 -0.0148,-0.0145 -0.0293,-0.02893 -0.0429,-0.04392 -0.0136,-0.015 -0.0268,-0.0305 -0.0393,-0.04599 -0.0125,-0.0155 -0.0243,-0.03103 -0.0357,-0.04703 -0.0114,-0.01601 -0.0223,-0.03208 -0.0326,-0.04857 -0.0103,-0.01648 -0.02,-0.03343 -0.0289,-0.05012 -0.009,-0.01669 -0.0171,-0.03322 -0.0248,-0.05013 -0.008,-0.01691 -0.0148,-0.03405 -0.0212,-0.05116 -0.006,-0.01712 -0.0124,-0.03436 -0.0176,-0.05168 -0.005,-0.0173 -0.01,-0.03467 -0.0134,-0.05219 -0.004,-0.01752 -0.007,-0.03499 -0.01,-0.05271 -0.003,-0.01773 -0.004,-0.03581 -0.006,-0.05375 -0.001,-0.01794 -0.002,-0.03612 -0.002,-0.05426 0,-0.01812 2.7e-4,-0.03582 0.002,-0.05374 0.001,-0.01791 0.003,-0.03602 0.006,-0.05375 0.003,-0.01773 0.006,-0.03519 0.01,-0.05271 0.004,-0.01752 0.008,-0.03488 0.0134,-0.05219 0.005,-0.0173 0.0112,-0.03457 0.0176,-0.05168 0.006,-0.01712 0.0135,-0.03426 0.0212,-0.05116 0.008,-0.01691 0.0158,-0.03343 0.0248,-0.05013 0.009,-0.01669 0.0187,-0.03363 0.0289,-0.05013 0.0103,-0.01651 0.0212,-0.03258 0.0326,-0.04857 0.0114,-0.01601 0.0232,-0.03153 0.0357,-0.04703 0.0125,-0.01548 0.0256,-0.031 0.0393,-0.04599 0.0136,-0.015 0.0281,-0.02944 0.0429,-0.04393 0.0148,-0.0145 0.0296,-0.0289 0.0455,-0.04289 0.0159,-0.014 0.0326,-0.02786 0.0496,-0.04134 0.017,-0.01349 0.0346,-0.0268 0.0527,-0.03979 0.0181,-0.01299 0.0366,-0.02574 0.0558,-0.03824 0.0193,-0.01249 0.0391,-0.02432 0.0594,-0.03617 0.0203,-0.01185 0.0412,-0.02341 0.0625,-0.03462 0.0214,-0.01122 0.0432,-0.02249 0.0656,-0.03307 0.0224,-0.01058 0.0452,-0.02053 0.0687,-0.03049 0.0235,-0.0099 0.0478,-0.01961 0.0723,-0.02894 0.0246,-0.0093 0.0493,-0.01818 0.0749,-0.02687 0.0256,-0.0087 0.0519,-0.01725 0.0785,-0.02532 0.0267,-0.0081 0.0539,-0.01582 0.0816,-0.02326 0.0277,-0.0074 0.0556,-0.01469 0.0842,-0.02119 0.0286,-0.0065 0.0578,-0.01251 0.0873,-0.0181 0.0295,-0.0056 0.0595,-0.01035 0.0899,-0.01498 0.0304,-0.0047 0.0612,-0.0087 0.0925,-0.01241 0.0313,-0.0037 0.0634,-0.007 0.0956,-0.0098 0.0322,-0.0028 0.0646,-0.0054 0.0977,-0.0072 0.0331,-0.0019 0.0668,-0.0032 0.10076,-0.0041 0.034,-0.0011 0.0685,-0.0016 0.10336,-0.0016 z" />
    <path
       d="m 113.89098,82.68922 h 0.0123 v -2.140108 h 0.44344 v 2.525289 h -0.55435 l -2.59906,-2.161461 h -0.0123 v 2.161461 h -0.4435 v -2.525289 h 0.5543 z"
       style="fill:#ffffff;fill-rule:evenodd;stroke-width:0.264583"
       id="path343" />
    <path
       d="m 57.017547,82.603628 1.472036,-2.054516 h 0.677465 v 2.525289 h -0.443441 v -2.182866 h -0.0123 l -1.576679,2.182866 h -0.234077 l -1.576705,-2.182866 h -0.01241 v 2.182866 h -0.443415 v -2.525289 h 0.677571 z"
       style="fill:#ffffff;fill-rule:evenodd;stroke-width:0.264583"
       id="path345" />
    <path
       d="m 39.253449,67.114946 v 2.286053 h -20.35728 v 1.871715 h 20.35728 1.697381 0.0028 v -1.871715 h -0.0028 V 67.114946 65.243257 H 39.253449 18.893312 v 1.871689 z"
       style="fill:#ffffff;fill-rule:evenodd;stroke-width:0.264583"
       id="path347" />
  </g>
</svg>
