<?xml version="1.0" encoding="UTF-8" standalone="no"?>
<!-- Created with Inkscape (http://www.inkscape.org/) -->

<svg
   width="103.90186mm"
   height="26.715668mm"
   viewBox="0 0 103.90186 26.715668"
   version="1.1"
   id="svg277"
   inkscape:version="1.1 (c68e22c387, 2021-05-23)"
   sodipodi:docname="drawing2.svg"
   inkscape:export-filename="C:\Users\knagy3\Desktop\bitmap2.png"
   inkscape:export-xdpi="96"
   inkscape:export-ydpi="96"
   xmlns:inkscape="http://www.inkscape.org/namespaces/inkscape"
   xmlns:sodipodi="http://sodipodi.sourceforge.net/DTD/sodipodi-0.dtd"
   xmlns="http://www.w3.org/2000/svg"
   xmlns:svg="http://www.w3.org/2000/svg">
  <sodipodi:namedview
     id="namedview279"
     pagecolor="#ffffff"
     bordercolor="#666666"
     borderopacity="1.0"
     inkscape:pageshadow="2"
     inkscape:pageopacity="0.0"
     inkscape:pagecheckerboard="0"
     inkscape:document-units="mm"
     showgrid="false"
     inkscape:object-nodes="true"
     inkscape:snap-smooth-nodes="false"
     inkscape:zoom="2.1971895"
     inkscape:cx="73.047865"
     inkscape:cy="65.538271"
     inkscape:window-width="1846"
     inkscape:window-height="1058"
     inkscape:window-x="-8"
     inkscape:window-y="1072"
     inkscape:window-maximized="1"
     inkscape:current-layer="layer1"
     inkscape:object-paths="true"
     inkscape:lockguides="false"
     fit-margin-top="0"
     fit-margin-left="0"
     fit-margin-right="0"
     fit-margin-bottom="0" />
  <defs
     id="defs274">
    <linearGradient
       id="linearGradient8130"
       inkscape:swatch="solid">
      <stop
         style="stop-color:#f1ffff;stop-opacity:1;"
         offset="0"
         id="stop8128" />
    </linearGradient>
    <linearGradient
       id="linearGradient6397"
       inkscape:swatch="solid">
      <stop
         style="stop-color:#000000;stop-opacity:1;"
         offset="0"
         id="stop6395" />
    </linearGradient>
    <linearGradient
       id="linearGradient2585"
       inkscape:swatch="solid">
      <stop
         style="stop-color:#ffffff;stop-opacity:1;"
         offset="0"
         id="stop2583" />
    </linearGradient>
  </defs>
  <g
     inkscape:label="Layer 1"
     inkscape:groupmode="layer"
     id="layer1"
     style="display:inline"
     transform="translate(-18.893224,-57.486203)">
    <path
       d="m 39.222122,75.796798 v 2.183527 h -20.32881 v 1.871715 h 20.32881 1.583214 0.100409 v -4.055242 -1.871742 h -1.683623 -20.32881 v 1.871742 z"
       style="fill:#0e1037;fill-rule:evenodd;stroke-width:0.264583"
       id="path281" />
    <path
       d="m 44.940773,61.43921 -7.94e-4,0.136525 -0.0038,1.897301 h -0.0065 l -0.110834,20.332832 -0.123164,-5.29e-4 -1.59e-4,0.05882 -25.802298,-0.05554 0.0042,-2.123122 23.885551,0.05136 0.09943,-18.268236 -23.973975,-0.05106 0.0042,-2.123123 26.027777,0.05546 -2.12e-4,0.0893 z"
       style="fill:#565757;fill-rule:evenodd;stroke-width:0.264583"
       id="path283" />
    <path
       d="m 48.828243,60.703298 h 0.761603 V 84.20187 h -0.761603 z"
       style="fill:#0e1037;fill-rule:evenodd;stroke-width:0.264583"
       id="path285" />
    <path
       d="m 91.940112,76.884209 h -2.719467 v -14.22527 h 2.719467 z"
       style="fill:#0e1037;fill-rule:evenodd;stroke-width:0.264583"
       id="path287" />
    <path
       d="m 93.524411,70.071347 h 5.10204 v 2.605855 h -5.10204 z"
       style="fill:#0e1037;fill-rule:evenodd;stroke-width:0.264583"
       id="path289" />
    <path
       d="m 110.24785,65.175868 h -6.93523 v 3.020959 h 6.36765 v 2.470812 h -6.36765 v 3.66006 h 7.25694 v 2.55651 h -9.93386 v -14.22527 h 9.61215 z"
       style="fill:#0e1037;fill-rule:evenodd;stroke-width:0.264583"
       id="path291" />
    <path
       id="path10570"
       style="fill:#0e1037;fill-rule:evenodd;stroke-width:0.264583"
       d="m 112.76676,62.658706 v 14.22549 h 2.71973 v -5.115968 h 2.78329 c 1.45381,0 2.57074,-0.346167 3.3538,-1.041281 0.78002,-0.695113 1.17151,-1.880944 1.17151,-3.561021 0,-1.5385 -0.39149,-2.675176 -1.17151,-3.406511 -0.78306,-0.734668 -1.83346,-1.100709 -3.15071,-1.100709 z m 2.71973,2.471169 h 2.5523 c 0.0808,0 0.15938,0.0024 0.23564,0.0072 0.0763,0.0048 0.15049,0.01199 0.22221,0.0217 0.0717,0.0097 0.14105,0.02207 0.20826,0.03669 0.0672,0.01463 0.13212,0.0316 0.19482,0.05116 0.0627,0.01955 0.12319,0.04163 0.18138,0.06615 0.0582,0.02453 0.11424,0.05164 0.16795,0.08113 0.0537,0.0295 0.10528,0.0611 0.15451,0.0956 0.0492,0.0345 0.0958,0.07157 0.14056,0.111104 0.0451,0.03954 0.0877,0.08254 0.12713,0.128675 0.0395,0.04613 0.0763,0.09557 0.11007,0.148312 0.0338,0.05274 0.0644,0.108593 0.0925,0.167947 0.0281,0.05936 0.0535,0.122115 0.076,0.188103 0.0225,0.06599 0.0421,0.135622 0.0589,0.208256 0.0168,0.07264 0.0312,0.148598 0.0424,0.227893 0.0112,0.07929 0.0192,0.161563 0.0248,0.247531 0.006,0.08597 0.009,0.175546 0.009,0.2682 0,0.09224 -0.003,0.1811 -0.009,0.267166 -0.006,0.08607 -0.0136,0.169191 -0.0248,0.249082 -0.0112,0.07989 -0.0255,0.156762 -0.0424,0.230475 -0.0168,0.07372 -0.0364,0.144339 -0.0589,0.211873 -0.0225,0.06754 -0.0478,0.131911 -0.076,0.193271 -0.0281,0.06136 -0.0587,0.119485 -0.0925,0.174667 -0.0338,0.05518 -0.0706,0.107577 -0.11007,0.15658 -0.0395,0.049 -0.082,0.09464 -0.12713,0.137459 -0.0448,0.04242 -0.0913,0.08221 -0.14056,0.119372 -0.0492,0.03716 -0.1008,0.07198 -0.15451,0.103871 -0.0537,0.03189 -0.10975,0.06073 -0.16795,0.08733 -0.0582,0.0266 -0.11869,0.05104 -0.18138,0.07234 -0.0627,0.0213 -0.12762,0.03981 -0.19482,0.05581 -0.0672,0.01601 -0.13653,0.02911 -0.20826,0.03979 -0.0717,0.01069 -0.14595,0.01894 -0.22221,0.02429 -0.0763,0.0053 -0.15484,0.0078 -0.23564,0.0078 h -2.5523 z" />
    <path
       d="m 66.690475,76.735778 h 6.207258 l -0.760016,-2.225516 h -4.560226 z"
       style="fill:#0e1037;fill-rule:evenodd;stroke-width:0.264583"
       id="path297" />
    <path
       d="m 69.686934,66.743392 -1.493255,5.162285 3.18561,-0.05159 z"
       style="fill:#0e1037;fill-rule:evenodd;stroke-width:0.264583"
       id="path299" />
    <path
       id="path10653"
       style="fill:#0e1037;fill-rule:evenodd;stroke-width:0.264583"
       d="m 54.654029,62.996672 v 14.19448 h 5.895763 c 2.069703,0 3.597301,-0.884203 4.589383,-2.64945 0.72898,-1.308338 1.093473,-2.906395 1.093473,-4.796605 2e-6,-0.74295 -0.08565,-1.52527 -0.259932,-2.347145 -0.171212,-0.821796 -0.49761,-1.587651 -0.973066,-2.294432 -0.595869,-0.871141 -1.372265,-1.472724 -2.332676,-1.801442 -0.561022,-0.190633 -1.267737,-0.292256 -2.117182,-0.305406 z m 2.776574,2.465482 h 2.637565 c 0.08122,0 0.160375,0.0016 0.238228,0.0047 0.07785,0.003 0.153924,0.0074 0.22841,0.01344 0.07448,0.006 0.147473,0.0132 0.218591,0.02223 0.07112,0.009 0.140507,0.02 0.208256,0.03204 0.06775,0.01204 0.134054,0.02524 0.198437,0.04031 0.06438,0.01505 0.127088,0.03152 0.188103,0.04961 0.06102,0.01807 0.120118,0.0378 0.177766,0.05891 0.05765,0.02111 0.11367,0.04408 0.167949,0.06822 0.05428,0.02413 0.106702,0.04982 0.157613,0.077 0.05091,0.02717 0.10025,0.05558 0.147793,0.08578 0.04755,0.03021 0.09328,0.06184 0.137462,0.09509 0.04418,0.03325 0.08683,0.0681 0.12764,0.104386 0.04081,0.03629 0.07987,0.07435 0.117306,0.113686 0.03744,0.03934 0.07341,0.08009 0.107487,0.122473 0.03407,0.04238 0.06645,0.08634 0.09715,0.131776 0.0307,0.04543 0.05948,0.09207 0.08682,0.14056 0.05467,0.09656 0.106244,0.198363 0.153996,0.305408 0.04775,0.107043 0.09195,0.219385 0.132807,0.336931 0.04086,0.117544 0.07815,0.240395 0.112139,0.368451 0.03399,0.128058 0.06433,0.261395 0.09147,0.399976 0.02714,0.138581 0.05099,0.282382 0.07131,0.431498 0.02032,0.14912 0.03712,0.303353 0.05064,0.463021 0.01352,0.159668 0.02373,0.324832 0.03049,0.495062 0.0067,0.170228 0.01035,0.345779 0.01035,0.526582 0,0.130662 -0.0021,0.259273 -0.0067,0.385506 -0.0046,0.126232 -0.01159,0.25029 -0.02066,0.37207 -0.0091,0.12178 -0.02048,0.241334 -0.03411,0.358635 -0.01363,0.1173 -0.02942,0.231888 -0.04754,0.34468 -0.01812,0.112795 -0.03835,0.223502 -0.06098,0.331764 -0.02262,0.108262 -0.04781,0.214106 -0.07493,0.31781 -0.02711,0.103706 -0.05626,0.205253 -0.08785,0.304374 -0.03159,0.09912 -0.06523,0.19591 -0.101288,0.290422 -0.03328,0.08629 -0.06842,0.170249 -0.104902,0.251148 -0.03648,0.0809 -0.07453,0.159107 -0.114205,0.234611 -0.03967,0.0755 -0.08116,0.147963 -0.124023,0.218075 -0.04286,0.07011 -0.08727,0.137853 -0.133326,0.20257 -0.04606,0.06472 -0.09338,0.126712 -0.142627,0.186037 -0.04925,0.05932 -0.100515,0.115567 -0.152961,0.169497 -0.05245,0.05393 -0.106108,0.105458 -0.161747,0.153996 -0.05564,0.04854 -0.113247,0.09432 -0.172083,0.137459 -0.05884,0.04315 -0.118837,0.08369 -0.180869,0.121441 -0.06203,0.03775 -0.125979,0.07254 -0.191201,0.104902 -0.06522,0.03236 -0.132088,0.06192 -0.200504,0.08888 -0.06842,0.02696 -0.138194,0.05129 -0.209807,0.07286 -0.07161,0.02156 -0.144819,0.04066 -0.219625,0.05684 -0.07481,0.01617 -0.151442,0.02952 -0.229444,0.04031 -0.078,0.0108 -0.157549,0.01889 -0.238744,0.02429 -0.0812,0.0054 -0.163658,0.0083 -0.248047,0.0083 h -2.637565 z" />
    <path
       d="m 106.42647,59.81197 -1.27315,1.734767 -1.05542,-0.833147 0.63238,-0.861642 c -0.30601,-0.242914 -0.50226,-0.618225 -0.50226,-1.039309 0,-0.732552 0.59386,-1.326436 1.32636,-1.326436 0.7325,0 1.32633,0.593884 1.32633,1.326436 0,0.398594 -0.17592,0.756179 -0.45424,0.999331 z"
       style="fill:#0e1037;fill-rule:evenodd;stroke-width:0.264583"
       id="path305" />
    <path
       d="m 79.004871,62.658939 h 0.01482 v 5.857425 l 5.059521,-5.857425 h 3.538908 l -5.369084,5.857425 5.645256,8.367845 h -3.520678 l -4.045823,-6.21657 -1.3081,1.459415 v 4.757155 h -2.683854 -0.0083 v -0.02363 l -4.967181,-14.212491 7.644764,0.0092 z"
       style="fill:#0e1037;fill-rule:evenodd;stroke-width:0.264583"
       id="path307" />
    <path
       d="m 60.793098,83.074401 h -0.443494 v -2.525289 h 0.443494 z"
       style="fill:#0e1037;fill-rule:evenodd;stroke-width:0.264583"
       id="path309" />
    <path
       d="m 65.129143,82.68922 h 0.0123 v -2.140108 h 0.443468 v 2.525289 H 65.030585 L 62.43153,80.91294 h -0.01244 v 2.161461 h -0.44341 v -2.525289 h 0.554249 z"
       style="fill:#0e1037;fill-rule:evenodd;stroke-width:0.264583"
       id="path311" />
    <path
       id="path10778"
       style="fill:#0e1037;fill-rule:evenodd;stroke-width:0.264583"
       d="m 66.706006,80.549088 v 2.525426 h 1.447456 c 0.271039,0 0.542843,-0.02625 0.815972,-0.07855 0.272942,-0.05231 0.519367,-0.131363 0.738971,-0.237196 0.219657,-0.105807 0.397266,-0.237313 0.532786,-0.39429 0.135467,-0.156898 0.203086,-0.341273 0.203086,-0.552939 0,-0.209206 -0.06762,-0.392782 -0.203086,-0.550871 -0.13552,-0.158141 -0.313129,-0.289981 -0.532786,-0.39584 -0.219604,-0.105781 -0.466029,-0.184862 -0.738971,-0.237194 -0.273129,-0.05233 -0.544933,-0.07855 -0.815972,-0.07855 z m 0.443383,0.235643 h 0.862478 c 0.04157,0 0.08228,1.24e-4 0.122473,0.0011 0.04019,7.94e-4 0.07953,0.0024 0.11834,0.0041 0.03881,0.0019 0.07729,0.004 0.114721,0.0067 0.03744,0.0027 0.07402,0.0062 0.110072,0.0098 0.03605,0.0036 0.07126,0.0079 0.105937,0.01241 0.03468,0.0046 0.06902,0.0095 0.102319,0.01498 0.0333,0.0055 0.06575,0.01119 0.09767,0.01757 0.03192,0.0064 0.06299,0.01339 0.09353,0.02066 0.03053,0.0073 0.06066,0.01487 0.08992,0.02273 0.02925,0.0079 0.05781,0.01582 0.08578,0.02429 0.02797,0.0085 0.05496,0.0173 0.08165,0.02635 0.02669,0.0091 0.05314,0.01826 0.07855,0.02791 0.0254,0.0097 0.04977,0.01971 0.0739,0.02997 0.02413,0.01027 0.04796,0.02066 0.0708,0.03152 0.02283,0.01085 0.04511,0.02214 0.06666,0.03359 0.02156,0.01146 0.04227,0.0231 0.06253,0.03514 0.02027,0.01204 0.03995,0.02424 0.05891,0.03669 0.01897,0.01244 0.03713,0.02537 0.05478,0.03824 0.01765,0.01286 0.03483,0.02601 0.05116,0.03927 0.01632,0.01326 0.03201,0.02663 0.04702,0.04031 0.015,0.01368 0.0292,0.02726 0.04289,0.04134 0.01371,0.01408 0.02689,0.0284 0.03927,0.04289 0.01238,0.0145 0.02408,0.02954 0.03514,0.04444 0.01106,0.0149 0.02125,0.02965 0.03101,0.04496 0.0097,0.01532 0.01887,0.03106 0.02739,0.04651 0.0085,0.01545 0.01646,0.03094 0.02376,0.04651 0.0073,0.01558 0.01405,0.03081 0.02016,0.04651 0.0061,0.01569 0.01167,0.03172 0.01654,0.04754 0.0049,0.01582 0.0093,0.03159 0.01291,0.04754 0.0037,0.01595 0.0069,0.03198 0.0093,0.04806 0.0024,0.01609 0.0039,0.03236 0.0052,0.04857 0.0013,0.01622 0.0021,0.03223 0.0021,0.04857 0,0.01635 -7.94e-4,0.03287 -0.0021,0.04909 -0.0013,0.01622 -0.0027,0.03249 -0.0052,0.04857 -0.0024,0.01609 -0.0056,0.0321 -0.0093,0.04806 -0.0037,0.01595 -0.008,0.03171 -0.01291,0.04754 -0.0049,0.01582 -0.01042,0.03185 -0.01654,0.04754 -0.0061,0.01569 -0.01283,0.03094 -0.02016,0.04651 -0.0073,0.01556 -0.01524,0.03108 -0.02376,0.04651 -0.0085,0.01542 -0.01765,0.03069 -0.02739,0.04599 -0.0098,0.01532 -0.01992,0.03058 -0.03101,0.04548 -0.01106,0.0149 -0.02275,0.02943 -0.03514,0.04392 -0.01238,0.0145 -0.02559,0.02881 -0.03927,0.04289 -0.01371,0.01408 -0.02788,0.02819 -0.04289,0.04186 -0.015,0.01368 -0.0307,0.02705 -0.04702,0.04031 -0.01632,0.01326 -0.03352,0.02643 -0.05116,0.03927 -0.01765,0.01286 -0.03582,0.02527 -0.05478,0.03772 -0.01897,0.01243 -0.03863,0.02466 -0.05891,0.03669 -0.02027,0.01204 -0.04098,0.02421 -0.06253,0.03566 -0.02156,0.01146 -0.04382,0.02222 -0.06666,0.03307 -0.02283,0.01085 -0.04667,0.02178 -0.0708,0.03204 -0.02413,0.01026 -0.04849,0.01979 -0.0739,0.02946 -0.0254,0.0097 -0.05186,0.01937 -0.07855,0.02842 -0.02669,0.0091 -0.05368,0.01789 -0.08165,0.02635 -0.02797,0.0085 -0.05653,0.0164 -0.08578,0.02429 -0.02925,0.0079 -0.05939,0.01545 -0.08992,0.02273 -0.03054,0.0073 -0.06162,0.01429 -0.09353,0.02066 -0.03192,0.0064 -0.06437,0.01212 -0.09767,0.01757 -0.0333,0.0055 -0.06764,0.01042 -0.102319,0.01498 -0.03468,0.0045 -0.06988,0.0088 -0.105937,0.01241 -0.03606,0.0037 -0.07264,0.0066 -0.110072,0.0093 -0.03743,0.0027 -0.07591,0.0054 -0.114721,0.0073 -0.03881,0.0019 -0.07815,0.0032 -0.11834,0.0041 -0.04019,7.94e-4 -0.0809,0.0011 -0.122473,0.0011 h -0.862478 z" />
    <path
       d="m 71.774841,82.838974 h 2.334313 v 0.235427 h -2.777808 v -2.525289 h 2.703883 v 0.235426 h -2.260388 v 0.859578 h 2.112539 v 0.235453 h -2.112539 z"
       style="fill:#0e1037;fill-rule:evenodd;stroke-width:0.264583"
       id="path317" />
    <path
       d="m 78.137276,82.68922 h 0.0123 v -2.140108 h 0.443416 v 2.525289 H 78.038666 L 75.439611,80.91294 h -0.01243 v 2.161461 h -0.443442 v -2.525289 h 0.554355 z"
       style="fill:#0e1037;fill-rule:evenodd;stroke-width:0.264583"
       id="path319" />
    <path
       id="path10861"
       style="fill:#0e1037;fill-rule:evenodd;stroke-width:0.264583"
       d="m 82.793394,80.549088 -1.897041,2.525426 h 0.517798 l 0.480073,-0.663524 h 2.229839 l 0.48059,0.663524 h 0.517281 l -1.897041,-2.525426 z m 0.216009,0.299722 0.942062,1.326534 h -1.890842 z" />
    <path
       d="m 87.86246,82.603628 1.472062,-2.054516 h 0.677466 v 2.525289 H 89.56852 v -2.182866 h -0.0123 l -1.576704,2.182866 H 87.745514 L 86.168809,80.891535 H 86.1564 v 2.182866 h -0.443442 v -2.525289 h 0.677545 z"
       style="fill:#0e1037;fill-rule:evenodd;stroke-width:0.264583"
       id="path325" />
    <path
       d="m 91.638011,83.074401 h -0.443442 v -2.525289 h 0.443442 z"
       style="fill:#0e1037;fill-rule:evenodd;stroke-width:0.264583"
       id="path327" />
    <path
       id="path11091"
       style="fill:#0e1037;fill-rule:evenodd;stroke-width:0.264583"
       d="m 94.532729,80.549088 v 2.525426 h 1.330669 c 0.349012,0 0.628232,-0.02871 0.837676,-0.08578 0.209362,-0.05707 0.36916,-0.124254 0.480074,-0.201538 0.110834,-0.07729 0.183771,-0.155128 0.21859,-0.233577 0.03493,-0.07845 0.05271,-0.137882 0.05271,-0.178284 0,-0.185473 -0.08748,-0.333304 -0.262001,-0.4439 -0.174546,-0.110569 -0.415494,-0.173326 -0.723469,-0.187587 v -0.0072 c 0.246353,-0.03328 0.435964,-0.0992 0.569473,-0.197921 0.13343,-0.09864 0.200507,-0.216546 0.200507,-0.3545 0,-0.118851 -0.03928,-0.218892 -0.117306,-0.299722 -0.078,-0.08088 -0.182933,-0.146392 -0.314193,-0.196371 -0.131392,-0.04995 -0.281283,-0.08554 -0.449585,-0.106971 -0.168407,-0.02141 -0.342852,-0.03204 -0.523483,-0.03204 z m 0.443384,0.235643 h 0.850077 c 0.05234,0 0.101872,0.0011 0.148828,0.0031 0.04696,0.0021 0.09124,0.0055 0.13281,0.0098 0.0208,0.0021 0.04102,0.0046 0.06046,0.0072 0.01945,0.0027 0.03824,0.0056 0.05633,0.0088 0.0181,0.0032 0.03545,0.0066 0.05219,0.01035 0.01675,0.0038 0.03317,0.0081 0.04857,0.01241 0.03079,0.0086 0.05974,0.01744 0.08682,0.02687 0.02708,0.0094 0.05209,0.01921 0.07545,0.02946 0.02336,0.01024 0.04496,0.02098 0.0646,0.03204 0.0098,0.0055 0.01902,0.01132 0.0279,0.01707 0.0089,0.0057 0.01736,0.01162 0.02532,0.01757 0.01593,0.01191 0.03032,0.02376 0.04341,0.03566 0.0131,0.01191 0.02487,0.02376 0.03514,0.03565 0.01027,0.01188 0.01892,0.02376 0.02635,0.03566 0.0074,0.01191 0.01347,0.02376 0.0181,0.03566 0.0046,0.01188 0.0089,0.02304 0.01241,0.03359 0.0035,0.01056 0.0065,0.02024 0.0088,0.02945 0.0024,0.0092 0.004,0.01797 0.0052,0.02585 0.0011,0.0079 0.0016,0.01516 0.0016,0.0217 0,0.01011 -7.94e-4,0.01974 -0.0016,0.02946 -7.94e-4,0.0097 -0.0019,0.01961 -0.0036,0.02894 -0.0016,0.0093 -0.0037,0.01844 -0.0062,0.02739 -0.0024,0.0089 -0.0054,0.0173 -0.0088,0.02585 -0.0033,0.0085 -0.0072,0.01717 -0.01138,0.02532 -0.0042,0.0081 -0.0084,0.01601 -0.01344,0.02376 -0.005,0.0078 -0.01069,0.01537 -0.01654,0.02273 -0.0058,0.0074 -0.01193,0.01474 -0.0186,0.0217 -0.01333,0.01397 -0.02761,0.02708 -0.04289,0.03979 -0.01527,0.0127 -0.03138,0.02474 -0.04858,0.03617 -0.0172,0.01146 -0.03566,0.02238 -0.05478,0.03256 -0.0191,0.01019 -0.03892,0.01953 -0.05994,0.02842 -0.02106,0.0089 -0.04279,0.01767 -0.06511,0.02532 -0.02233,0.0076 -0.04512,0.01429 -0.06873,0.02066 -0.0236,0.0064 -0.04798,0.01243 -0.07286,0.01757 -0.0249,0.0051 -0.0503,0.0096 -0.07648,0.01344 -0.02617,0.0039 -0.05276,0.0074 -0.07906,0.01035 -0.0263,0.0029 -0.05263,0.0053 -0.07907,0.0072 -0.02643,0.0019 -0.05301,0.0032 -0.07958,0.0041 -0.02657,0.0011 -0.05287,0.0016 -0.07958,0.0016 H 94.97611 Z" />
    <path
       style="color:#000000;fill:#ffffff;fill-rule:evenodd;stroke-width:0.264583;-inkscape-stroke:none"
       d="m 94.976338,82.838974 h 0.849974 c 0.160205,0 0.310013,-0.0095 0.44966,-0.02849 0.139514,-0.01902 0.260667,-0.04815 0.363405,-0.08739 0.102605,-0.03921 0.183726,-0.08861 0.243178,-0.148034 0.05953,-0.05943 0.0894,-0.130784 0.0894,-0.213995 0,-0.16645 -0.09244,-0.29009 -0.277204,-0.370946 -0.184758,-0.08088 -0.455851,-0.121285 -0.813064,-0.121285 h -0.905352 z"
       id="path333" />
    <path
       d="m 98.856506,82.838974 h 2.334364 v 0.235427 h -2.777779 v -2.525289 h 2.703799 v 0.235426 h -2.260384 v 0.859578 h 2.112614 v 0.235453 h -2.112614 z"
       style="fill:#0e1037;fill-rule:evenodd;stroke-width:0.264583"
       id="path335" />
    <path
       style="color:#000000;fill:#0e1037;fill-rule:evenodd;stroke-width:0.264583;-inkscape-stroke:none"
       d="m 103.46362,83.074401 h -0.44342 v -2.289863 h -1.45976 v -0.235426 h 3.36283 v 0.235426 h -1.45965 z"
       id="path337" />
    <path
       id="path10406"
       style="fill:#0e1037;fill-rule:evenodd;stroke-width:0.264583"
       d="m 107.57793,80.485008 c -0.32435,0 -0.62515,0.03317 -0.90227,0.09974 -0.27718,0.06654 -0.51766,0.158729 -0.72089,0.276469 -0.20333,0.117687 -0.36196,0.257408 -0.47697,0.419095 -0.11496,0.161739 -0.1726,0.338642 -0.1726,0.531233 0,0.192643 0.0576,0.370091 0.1726,0.531751 0.11501,0.161687 0.27364,0.301408 0.47697,0.419095 0.20323,0.117687 0.44371,0.209902 0.72089,0.276471 0.27712,0.06662 0.57792,0.09973 0.90227,0.09973 0.3244,0 0.62515,-0.03311 0.90227,-0.09973 0.2772,-0.06657 0.51717,-0.158784 0.72037,-0.276471 0.20322,-0.117687 0.36258,-0.257408 0.47749,-0.419095 0.11509,-0.16166 0.1726,-0.339108 0.1726,-0.531751 0,-0.192591 -0.0575,-0.369494 -0.1726,-0.531233 -0.11491,-0.161687 -0.27427,-0.301408 -0.47749,-0.419095 -0.2032,-0.11774 -0.44317,-0.209926 -0.72037,-0.276469 -0.27712,-0.06657 -0.57787,-0.09974 -0.90227,-0.09974 z m 0,0.235127 c 0.0349,0 0.0694,5.3e-4 0.10335,0.0016 0.034,0.0011 0.0677,0.0024 0.10077,0.0041 0.0331,0.0019 0.0655,0.0044 0.0977,0.0072 0.0322,0.0028 0.0643,0.0061 0.0956,0.0098 0.0313,0.0037 0.0621,0.0078 0.0925,0.01241 0.0304,0.0047 0.0604,0.0094 0.0899,0.01498 0.0295,0.0056 0.0582,0.01159 0.0868,0.0181 0.0286,0.0065 0.057,0.01376 0.0847,0.02119 0.0277,0.0074 0.055,0.01519 0.0816,0.02326 0.0267,0.0081 0.0529,0.01662 0.0786,0.02532 0.0256,0.0087 0.0504,0.01754 0.0749,0.02687 0.0245,0.0093 0.0483,0.01897 0.0718,0.02894 0.0235,0.0099 0.0468,0.0199 0.0693,0.03049 0.0224,0.01058 0.0443,0.02186 0.0656,0.03307 0.0213,0.01122 0.0422,0.02278 0.0625,0.03462 0.0203,0.01185 0.0402,0.02371 0.0594,0.03617 0.0192,0.01249 0.0377,0.02524 0.0558,0.03824 0.0181,0.01299 0.0357,0.0263 0.0527,0.03979 0.017,0.01349 0.0332,0.02736 0.0491,0.04134 0.0159,0.014 0.0312,0.0284 0.046,0.04289 0.0148,0.0145 0.0293,0.02893 0.0429,0.04393 0.0136,0.01497 0.0268,0.0305 0.0393,0.04599 0.0125,0.01551 0.0243,0.03103 0.0357,0.04703 0.0114,0.01601 0.0223,0.03208 0.0326,0.04857 0.0103,0.01648 0.02,0.03343 0.0289,0.05013 0.009,0.01669 0.0171,0.03322 0.0248,0.05013 0.008,0.01691 0.0148,0.03405 0.0212,0.05116 0.006,0.01712 0.0124,0.03436 0.0176,0.05168 0.005,0.0173 0.01,0.03468 0.0134,0.05219 0.004,0.01752 0.007,0.03499 0.009,0.05271 0.003,0.01773 0.005,0.03582 0.006,0.05375 0.001,0.01791 0.002,0.03562 0.002,0.05374 0,0.01815 -2.6e-4,0.03633 -0.002,0.05426 -10e-4,0.01794 -0.004,0.03602 -0.006,0.05375 -0.003,0.01773 -0.005,0.03519 -0.009,0.05271 -0.004,0.01752 -0.008,0.03488 -0.0134,0.05219 -0.005,0.0173 -0.0112,0.03457 -0.0176,0.05168 -0.006,0.01712 -0.0135,0.03426 -0.0212,0.05116 -0.008,0.01691 -0.0158,0.03343 -0.0248,0.05013 -0.009,0.01669 -0.0187,0.03363 -0.0289,0.05012 -0.0103,0.01648 -0.0212,0.03258 -0.0326,0.04857 -0.0114,0.01601 -0.0231,0.03153 -0.0357,0.04703 -0.0125,0.01551 -0.0256,0.031 -0.0393,0.04599 -0.0136,0.015 -0.0281,0.02943 -0.0429,0.04392 -0.0148,0.0145 -0.0301,0.0289 -0.046,0.04289 -0.0159,0.014 -0.0321,0.02786 -0.0491,0.04134 -0.017,0.01349 -0.0346,0.02681 -0.0527,0.03979 -0.0181,0.01299 -0.0366,0.02524 -0.0558,0.03772 -0.0193,0.01249 -0.0391,0.02484 -0.0594,0.03669 -0.0203,0.01185 -0.0412,0.02341 -0.0625,0.03462 -0.0214,0.01122 -0.0432,0.02196 -0.0656,0.03256 -0.0224,0.01058 -0.0458,0.02106 -0.0693,0.03101 -0.0235,0.0099 -0.0473,0.01961 -0.0718,0.02894 -0.0246,0.0093 -0.0493,0.01818 -0.0749,0.02687 -0.0256,0.0087 -0.0519,0.01725 -0.0786,0.02532 -0.0267,0.0081 -0.0539,0.01582 -0.0816,0.02326 -0.0277,0.0074 -0.0561,0.01416 -0.0847,0.02066 -0.0286,0.0065 -0.0573,0.01251 -0.0868,0.0181 -0.0295,0.0056 -0.0595,0.01085 -0.0899,0.0155 -0.0304,0.0047 -0.0612,0.0087 -0.0925,0.01241 -0.0313,0.0037 -0.0634,0.007 -0.0956,0.0098 -0.0322,0.0028 -0.0646,0.0054 -0.0977,0.0072 -0.0331,0.0019 -0.0668,0.0032 -0.10077,0.0041 -0.034,0.0011 -0.0684,0.0011 -0.10335,0.0011 -0.0349,0 -0.0694,-1.03e-4 -0.10336,-0.0011 -0.034,-0.0011 -0.0677,-0.0024 -0.10076,-0.0041 -0.0331,-0.0019 -0.0655,-0.0044 -0.0977,-0.0072 -0.0322,-0.0028 -0.0643,-0.0061 -0.0956,-0.0098 -0.0313,-0.0037 -0.0621,-0.0078 -0.0925,-0.01241 -0.0304,-0.0047 -0.0604,-0.0099 -0.0899,-0.0155 -0.0295,-0.0056 -0.0587,-0.01159 -0.0873,-0.0181 -0.0286,-0.0065 -0.0565,-0.01323 -0.0842,-0.02066 -0.0277,-0.0074 -0.055,-0.01519 -0.0816,-0.02326 -0.0267,-0.0081 -0.0529,-0.01664 -0.0785,-0.02532 -0.0256,-0.0087 -0.0504,-0.01754 -0.0749,-0.02687 -0.0245,-0.0093 -0.0489,-0.019 -0.0723,-0.02894 -0.0235,-0.0099 -0.0463,-0.02043 -0.0687,-0.03101 -0.0224,-0.01058 -0.0443,-0.02133 -0.0656,-0.03256 -0.0213,-0.01122 -0.0422,-0.02278 -0.0625,-0.03462 -0.0203,-0.01185 -0.0402,-0.02421 -0.0594,-0.03669 -0.0192,-0.01249 -0.0377,-0.02474 -0.0558,-0.03772 -0.0181,-0.01299 -0.0357,-0.0263 -0.0527,-0.03979 -0.017,-0.01349 -0.0337,-0.02735 -0.0496,-0.04134 -0.0159,-0.014 -0.0307,-0.0284 -0.0455,-0.04289 -0.0148,-0.0145 -0.0293,-0.02893 -0.0429,-0.04392 -0.0136,-0.015 -0.0268,-0.0305 -0.0393,-0.04599 -0.0125,-0.0155 -0.0243,-0.03103 -0.0357,-0.04703 -0.0114,-0.01601 -0.0223,-0.03208 -0.0326,-0.04857 -0.0103,-0.01648 -0.02,-0.03343 -0.0289,-0.05012 -0.009,-0.01669 -0.0171,-0.03322 -0.0248,-0.05013 -0.008,-0.01691 -0.0148,-0.03405 -0.0212,-0.05116 -0.006,-0.01712 -0.0124,-0.03436 -0.0176,-0.05168 -0.005,-0.0173 -0.01,-0.03467 -0.0134,-0.05219 -0.004,-0.01752 -0.007,-0.03499 -0.01,-0.05271 -0.003,-0.01773 -0.004,-0.03581 -0.006,-0.05375 -0.001,-0.01794 -0.002,-0.03612 -0.002,-0.05426 0,-0.01812 2.7e-4,-0.03582 0.002,-0.05374 0.001,-0.01791 0.003,-0.03602 0.006,-0.05375 0.003,-0.01773 0.006,-0.03519 0.01,-0.05271 0.004,-0.01752 0.008,-0.03488 0.0134,-0.05219 0.005,-0.0173 0.0112,-0.03457 0.0176,-0.05168 0.006,-0.01712 0.0135,-0.03426 0.0212,-0.05116 0.008,-0.01691 0.0158,-0.03343 0.0248,-0.05013 0.009,-0.01669 0.0187,-0.03363 0.0289,-0.05013 0.0103,-0.01651 0.0212,-0.03258 0.0326,-0.04857 0.0114,-0.01601 0.0232,-0.03153 0.0357,-0.04703 0.0125,-0.01548 0.0256,-0.031 0.0393,-0.04599 0.0136,-0.015 0.0281,-0.02944 0.0429,-0.04393 0.0148,-0.0145 0.0296,-0.0289 0.0455,-0.04289 0.0159,-0.014 0.0326,-0.02786 0.0496,-0.04134 0.017,-0.01349 0.0346,-0.0268 0.0527,-0.03979 0.0181,-0.01299 0.0366,-0.02574 0.0558,-0.03824 0.0193,-0.01249 0.0391,-0.02432 0.0594,-0.03617 0.0203,-0.01185 0.0412,-0.02341 0.0625,-0.03462 0.0214,-0.01122 0.0432,-0.02249 0.0656,-0.03307 0.0224,-0.01058 0.0452,-0.02053 0.0687,-0.03049 0.0235,-0.0099 0.0478,-0.01961 0.0723,-0.02894 0.0246,-0.0093 0.0493,-0.01818 0.0749,-0.02687 0.0256,-0.0087 0.0519,-0.01725 0.0785,-0.02532 0.0267,-0.0081 0.0539,-0.01582 0.0816,-0.02326 0.0277,-0.0074 0.0556,-0.01469 0.0842,-0.02119 0.0286,-0.0065 0.0578,-0.01251 0.0873,-0.0181 0.0295,-0.0056 0.0595,-0.01035 0.0899,-0.01498 0.0304,-0.0047 0.0612,-0.0087 0.0925,-0.01241 0.0313,-0.0037 0.0634,-0.007 0.0956,-0.0098 0.0322,-0.0028 0.0646,-0.0054 0.0977,-0.0072 0.0331,-0.0019 0.0668,-0.0032 0.10076,-0.0041 0.034,-0.0011 0.0685,-0.0016 0.10336,-0.0016 z" />
    <path
       d="m 113.89098,82.68922 h 0.0123 v -2.140108 h 0.44344 v 2.525289 h -0.55435 l -2.59906,-2.161461 h -0.0123 v 2.161461 h -0.4435 v -2.525289 h 0.5543 z"
       style="fill:#0e1037;fill-rule:evenodd;stroke-width:0.264583"
       id="path343" />
    <path
       d="m 57.017547,82.603628 1.472036,-2.054516 h 0.677465 v 2.525289 h -0.443441 v -2.182866 h -0.0123 l -1.576679,2.182866 h -0.234077 l -1.576705,-2.182866 h -0.01241 v 2.182866 h -0.443415 v -2.525289 h 0.677571 z"
       style="fill:#0e1037;fill-rule:evenodd;stroke-width:0.264583"
       id="path345" />
    <path
       d="m 39.253449,67.114946 v 2.286053 h -20.35728 v 1.871715 h 20.35728 1.697381 0.0028 v -1.871715 h -0.0028 V 67.114946 65.243257 H 39.253449 18.893312 v 1.871689 z"
       style="fill:#0e1037;fill-rule:evenodd;stroke-width:0.264583"
       id="path347" />
  </g>
</svg>
