<?xml version="1.0" encoding="UTF-8" standalone="no"?>
<!-- Created with Inkscape (http://www.inkscape.org/) -->

<svg
   version="1.1"
   id="svg9"
   width="1342.6667"
   height="917.33331"
   viewBox="0 0 1342.6667 917.33331"
   sodipodi:docname="shape-left2.svg"
   inkscape:version="1.1 (c68e22c387, 2021-05-23)"
   xmlns:inkscape="http://www.inkscape.org/namespaces/inkscape"
   xmlns:sodipodi="http://sodipodi.sourceforge.net/DTD/sodipodi-0.dtd"
   xmlns="http://www.w3.org/2000/svg"
   xmlns:svg="http://www.w3.org/2000/svg">
  <defs
     id="defs13" />
  <sodipodi:namedview
     id="namedview11"
     pagecolor="#505050"
     bordercolor="#eeeeee"
     borderopacity="1"
     inkscape:pageshadow="0"
     inkscape:pageopacity="0"
     inkscape:pagecheckerboard="0"
     showgrid="false"
     inkscape:zoom="0.48038726"
     inkscape:cx="671.33337"
     inkscape:cy="459.00468"
     inkscape:window-width="1366"
     inkscape:window-height="705"
     inkscape:window-x="234"
     inkscape:window-y="1192"
     inkscape:window-maximized="1"
     inkscape:current-layer="g15" />
  <g
     inkscape:groupmode="layer"
     inkscape:label="Image"
     id="g15">
    <g
       id="g265"
       transform="rotate(180,672.18932,458.78073)"
       style="fill:#ffa400;fill-opacity:1">
      <path
         style="fill:#ffa400;fill-opacity:1;stroke-width:1.33333"
         d="m 665.91614,896.99998 -3.91612,-4.33334 4.33333,3.91612 c 4.03928,3.65038 4.9462,4.75055 3.91612,4.75055 -0.22947,0 -2.17947,-1.95 -4.33333,-4.33333 z m -14.98952,-40.33334 c 0.0272,-2.2 0.326,-2.93858 0.66405,-1.64129 0.33805,1.29729 0.31583,3.09729 -0.0495,4 -0.36524,0.90271 -0.64182,-0.15871 -0.61465,-2.35871 z M 1106.6667,739.49657 c 0,-0.27687 1.05,-1.32687 2.3333,-2.33334 2.1148,-1.65849 2.1619,-1.61133 0.5034,0.50342 -1.7418,2.221 -2.8367,2.9273 -2.8367,1.82992 z m 10.6667,-9.33334 c 0,-0.27686 1.05,-1.32686 2.3333,-2.33333 2.1147,-1.65849 2.1619,-1.61133 0.5034,0.50341 -1.7418,2.221 -2.8367,2.92731 -2.8367,1.82992 z m 14,-12.82991 c 1.3273,-1.46667 2.7133,-2.66667 3.0799,-2.66667 0.3667,0 -0.4193,1.2 -1.7466,2.66667 -1.3273,1.46666 -2.7133,2.66666 -3.08,2.66666 -0.3666,0 0.4193,-1.2 1.7467,-2.66666 z m 15.3333,-13.75055 c 0,-0.22947 1.95,-2.17947 4.3333,-4.33333 l 4.3334,-3.91612 -3.9162,4.33333 c -3.6503,4.03928 -4.7505,4.9462 -4.7505,3.91612 z M 696.21054,674.66665 c 0,-1.83333 0.30264,-2.58333 0.67252,-1.66667 0.36988,0.91667 0.36988,2.41667 0,3.33334 -0.36988,0.91666 -0.67252,0.16666 -0.67252,-1.66667 z M 1190,659.99998 c 1.3273,-1.46666 2.7133,-2.66666 3.08,-2.66666 0.3667,0 -0.4193,1.2 -1.7466,2.66666 -1.3274,1.46667 -2.7133,2.66667 -3.08,2.66667 -0.3667,0 0.4193,-1.2 1.7466,-2.66667 z m -493.89472,-18.1111 c 0.064,-1.55327 0.37992,-1.8692 0.80555,-0.80556 0.38516,0.96249 0.3378,2.1125 -0.1052,2.55556 -0.44305,0.44305 -0.75819,-0.34446 -0.70029,-1.75 z M 611.82994,473.66665 c -1.6585,-2.11474 -1.61134,-2.1619 0.50341,-0.50341 2.221,1.74183 2.92731,2.83675 1.82992,2.83675 -0.27687,0 -1.32687,-1.05 -2.33333,-2.33334 z m -504.62329,-213.99999 -2.53998,-3 3,2.53999 c 1.65,1.39698 3,2.74698 3,3 0,1.067 -1.07306,0.27926 -3.46002,-2.53999 z m 1231.56525,-4.44444 c 0.064,-1.55327 0.38,-1.8692 0.8056,-0.80556 0.3852,0.96249 0.3379,2.11249 -0.1053,2.55556 -0.4431,0.44305 -0.7583,-0.34445 -0.7004,-1.75 z M 85.873319,238.33333 l -2.539984,-3 3,2.53998 c 2.819261,2.38696 3.606989,3.46002 2.539985,3.46002 -0.25301,0 -1.60301,-1.35 -3.000001,-3 z M 1340.2599,232.66666 c 0.027,-2.2 0.326,-2.93859 0.6641,-1.64129 0.338,1.29729 0.3159,3.09729 -0.049,4 -0.3652,0.9027 -0.6417,-0.15871 -0.6147,-2.35871 z m 0,-94.66666 c 0.027,-2.2 0.326,-2.93859 0.6641,-1.6413 0.338,1.2973 0.3159,3.0973 -0.049,4 -0.3652,0.90271 -0.6417,-0.1587 -0.6147,-2.3587 z m -1.488,-22.77778 c 0.064,-1.55326 0.38,-1.8692 0.8056,-0.80556 0.3852,0.9625 0.3379,2.1125 -0.1053,2.55556 -0.4431,0.44305 -0.7583,-0.34445 -0.7004,-1.75 z m -1.3333,-16 c 0.064,-1.553257 0.38,-1.8692 0.8056,-0.805556 0.3852,0.9625 0.3378,2.112496 -0.1054,2.555556 -0.443,0.44305 -0.7582,-0.34445 -0.7004,-1.75 z M 0.25993163,57.999999 c 0.0271729,-2.2 0.32599813,-2.938582 0.66405602,-1.641291 0.33805785,1.297289 0.31582555,3.097289 -0.0494053,4 -0.36523079,0.902709 -0.64182361,-0.15871 -0.61465072,-2.358709 z m 0,-17.333333 c 0.0271729,-2.2 0.32599813,-2.938582 0.66405602,-1.641291 0.33805785,1.297289 0.31582555,3.097289 -0.0494053,4 -0.36523079,0.902709 -0.64182361,-0.158709 -0.61465072,-2.358709 z"
         id="path273" />
      <path
         style="fill:#ffa400;fill-opacity:1;stroke-width:1.33333"
         d="m 1156.6667,693.33332 c 1.3273,-1.46667 2.7133,-2.66667 3.08,-2.66667 0.3666,0 -0.4194,1.2 -1.7467,2.66667 -1.3273,1.46666 -2.7133,2.66666 -3.0799,2.66666 -0.3667,0 0.4193,-1.2 1.7466,-2.66666 z M 696.10528,679.22221 c 0.064,-1.55327 0.37992,-1.8692 0.80555,-0.80556 0.38516,0.96249 0.3378,2.11251 -0.1052,2.55556 -0.44305,0.44305 -0.75819,-0.34445 -0.70029,-1.75 z M 1184,666.16324 c 0,-0.27687 1.05,-1.32687 2.3334,-2.33334 2.1147,-1.65849 2.1619,-1.61133 0.5034,0.50342 -1.7419,2.221 -2.8368,2.9273 -2.8368,1.82992 z m 153.4386,-397.60769 c 0.064,-1.55326 0.38,-1.8692 0.8056,-0.80556 0.3852,0.9625 0.3378,2.1125 -0.1054,2.55556 -0.443,0.44306 -0.7582,-0.34445 -0.7004,-1.75 z m -1235.56528,-14.22222 -2.539984,-3 3.000004,2.53998 c 2.81926,2.38696 3.60698,3.46002 2.53998,3.46002 -0.25301,0 -1.60301,-1.35 -3,-3 z m 1236.89858,-3.11111 c 0.064,-1.55327 0.38,-1.8692 0.8056,-0.80556 0.3852,0.96249 0.3379,2.11249 -0.1053,2.55556 -0.4431,0.44305 -0.7583,-0.34445 -0.7004,-1.75 z m -1247.565247,-7.55556 -2.539984,-3 3,2.53999 c 2.81926,2.38696 3.606988,3.46001 2.539984,3.46001 -0.253009,0 -1.603009,-1.35 -3,-3 z m 1249.003947,-17 c 0,-1.83333 0.3026,-2.58333 0.6725,-1.66667 0.3699,0.91667 0.3699,2.41667 0,3.33334 -0.3699,0.91666 -0.6725,0.16666 -0.6725,-1.66667 z m -0.1054,-83.44444 c 0.064,-1.55326 0.38,-1.8692 0.8056,-0.80556 0.3852,0.9625 0.3379,2.1125 -0.1053,2.55556 -0.4431,0.44306 -0.7583,-0.34445 -0.7004,-1.75 z M 0.36315216,49.333332 c 0,-3.3 0.26002134,-4.65 0.57782521,-3 0.31780383,1.65 0.31780383,4.35 0,6 -0.31780387,1.65 -0.57782521,0.3 -0.57782521,-3 z"
         id="path271" />
      <path
         style="fill:#ffa400;fill-opacity:1;stroke-width:1.33333"
         d="m 717.08335,916.4225 c 0.96249,-0.38516 2.11251,-0.3378 2.55556,0.1052 0.44305,0.44305 -0.34445,0.75818 -1.75,0.70029 -1.55327,-0.064 -1.8692,-0.37992 -0.80556,-0.80555 z m 29.33334,0 c 0.96249,-0.38516 2.1125,-0.3378 2.55556,0.1052 0.44305,0.44305 -0.34446,0.75818 -1.75,0.70029 -1.55327,-0.064 -1.8692,-0.37992 -0.80556,-0.80555 z M 1101.3334,743.49657 c 0,-0.27687 1.05,-1.32687 2.3333,-2.33334 2.1147,-1.65849 2.1619,-1.61133 0.5034,0.50342 -1.7418,2.221 -2.8367,2.9273 -2.8367,1.82992 z M 1112,734.16323 c 0,-0.27686 1.05,-1.32686 2.3334,-2.33333 2.1147,-1.65849 2.1619,-1.61133 0.5034,0.50341 -1.7419,2.221 -2.8368,2.92731 -2.8368,1.82992 z m 12.6667,-11.49658 c 1.3273,-1.46667 2.7133,-2.66667 3.08,-2.66667 0.3666,0 -0.4194,1.2 -1.7467,2.66667 -1.3273,1.46666 -2.7133,2.66666 -3.0799,2.66666 -0.3667,0 0.4193,-1.2 1.7466,-2.66666 z m 14.6667,-13.33333 c 1.3273,-1.46667 2.7133,-2.66667 3.0799,-2.66667 0.3667,0 -0.4193,1.2 -1.7466,2.66667 -1.3273,1.46666 -2.7133,2.66666 -3.08,2.66666 -0.3666,0 0.4193,-1.2 1.7467,-2.66666 z m 32,-30.66667 c 6.5694,-6.6 12.2444,-12 12.611,-12 0.3667,0 -4.7083,5.4 -11.2777,12 -6.5694,6.6 -12.2444,12 -12.6111,12 -0.3666,0 4.7083,-5.4 11.2778,-12 z M 1196,652.8299 c 0,-0.27686 1.05,-1.32686 2.3334,-2.33333 2.1147,-1.65849 2.1619,-1.61133 0.5034,0.50341 -1.7419,2.221 -2.8368,2.92731 -2.8368,1.82992 z M 637.16327,498.99999 c -1.65849,-2.11475 -1.61133,-2.16191 0.50341,-0.50342 2.221,1.74183 2.92731,2.83675 1.82992,2.83675 -0.27686,0 -1.32686,-1.05 -2.33333,-2.33333 z m -14.59751,-16 -3.23241,-3.66667 3.66667,3.23241 c 3.42705,3.02119 4.27812,4.10092 3.23241,4.10092 -0.23883,0 -1.88883,-1.65 -3.66667,-3.66666 z M 606.4966,468.33332 c -1.65849,-2.11475 -1.61133,-2.16191 0.50342,-0.50341 1.28333,1.00646 2.33333,2.05646 2.33333,2.33333 0,1.09739 -1.09492,0.39108 -2.83675,-1.82992 z M 96.539986,248.99999 l -2.539984,-3 3,2.53999 c 2.81926,2.38696 3.606988,3.46001 2.539984,3.46001 -0.253009,0 -1.603009,-1.35 -3,-3 z M 1338.7719,247.22222 c 0.064,-1.55327 0.38,-1.8692 0.8056,-0.80556 0.3852,0.96249 0.3379,2.11249 -0.1053,2.55556 -0.4431,0.44305 -0.7583,-0.34445 -0.7004,-1.75 z M 78.496595,229.66666 c -1.658494,-2.11475 -1.611334,-2.16191 0.503407,-0.50341 1.283333,1.00646 2.333333,2.05646 2.333333,2.33333 0,1.09739 -1.094914,0.39108 -2.83674,-1.82992 z M 1340.3094,219.99999 c 0,-2.56666 0.2744,-3.61666 0.6097,-2.33333 0.3355,1.28333 0.3355,3.38333 0,4.66667 -0.3353,1.28333 -0.6097,0.23333 -0.6097,-2.33334 z M 1340.336,150 c 0.015,-2.93334 0.2879,-3.97634 0.6068,-2.31779 0.319,1.65855 0.3068,4.05855 -0.027,5.33333 -0.3338,1.27479 -0.5947,-0.0823 -0.5799,-3.01554 z m -1.4588,-27.33334 c 0,-1.83333 0.3027,-2.58333 0.6726,-1.66666 0.3698,0.91666 0.3698,2.41666 0,3.33333 -0.3699,0.91667 -0.6726,0.16667 -0.6726,-1.66667 z m -1.4386,-18.11111 c 0.064,-1.55325 0.38,-1.8692 0.8056,-0.80555 0.3852,0.9625 0.3378,2.1125 -0.1054,2.55555 -0.443,0.44306 -0.7582,-0.34444 -0.7004,-1.75 z M 1.4385966,69.888888 c 0.063979,-1.553258 0.3799204,-1.8692 0.8055555,-0.805556 0.3851608,0.9625 0.3377924,2.1125 -0.1052627,2.555556 -0.4430556,0.443054 -0.7581872,-0.344446 -0.7002928,-1.75 z"
         id="path269" />
      <path
         style="fill:#ffa400;fill-opacity:1;stroke-width:1.33333"
         d="m 711.33335,915.92479 c -41.05111,-5.55224 -61.53084,-28.26084 -58.85299,-65.25814 1.07206,-14.81152 5.51127,-30.92288 15.26871,-55.4152 15.00389,-37.66155 23.43951,-68.31643 27.67891,-100.5848 3.21949,-24.50524 2.01284,-64.11488 -2.62268,-86.09267 C 670.99556,505.17036 584.00884,426.44479 438.00001,377.9676 c -34.45532,-11.43969 -58.19272,-17.61226 -110,-28.6039 C 228.88945,328.33598 206.35661,321.89714 172.55378,304.94439 144.61596,290.93305 120.4312,272.47638 93.146698,244.34466 40.52168,190.08557 9.3249946,131.16284 2.6012071,73.326889 -0.01307008,50.839679 2.3787891,15.370654 7.3886687,2.3333333 8.2409262,0.11548461 40.77637,0 664.75794,0 h 656.47266 l 1.3463,4.9999999 c 8.6416,32.0925471 15.1167,84.5921021 17.6783,143.3333301 6.1531,141.09805 -20.7688,285.14138 -73.6771,394.2023 -13.872,28.59456 -21.1764,41.38314 -39.2951,68.79769 -19.1939,29.04122 -30.2191,42.03506 -62.7899,74.00132 -77.7417,76.29863 -155.8003,134.93307 -227.2885,170.72982 -58.81651,29.45154 -121.3229,51.09194 -167.29014,57.91768 -18.08612,2.68562 -46.19576,3.6178 -58.58111,1.94265 z"
         id="path267" />
    </g>
    <path
       style="fill:#000000;stroke-width:1.33333"
       id="path209"
       d="" />
  </g>
</svg>
