<?xml version="1.0" encoding="iso-8859-1"?>
<!-- Generator: Adobe Illustrator 19.0.0, SVG Export Plug-In . SVG Version: 6.00 Build 0)  -->
<svg version="1.1" id="Capa_1" xmlns="http://www.w3.org/2000/svg" xmlns:xlink="http://www.w3.org/1999/xlink" x="0px" y="0px"
	 viewBox="0 0 482.304 482.304" style="enable-background:new 0 0 482.304 482.304;" xml:space="preserve">
<g>
	<g>
		<path d="M381.952,337.157c-9.728,0-17.92,8.192-17.92,17.92c0,9.728,8.192,17.92,17.92,17.92c9.728,0,17.92-8.192,17.92-17.92
			C399.872,345.349,392.192,337.157,381.952,337.157z M381.952,362.757c-4.096,0-7.68-3.584-7.68-7.68s3.584-7.68,7.68-7.68
			c4.096,0,7.68,3.584,7.68,7.68S386.56,362.757,381.952,362.757z"/>
	</g>
</g>
<g>
	<g>
		<path d="M151.552,337.157c-9.728,0-17.92,8.192-17.92,17.92c0,9.728,8.192,17.92,17.92,17.92c9.728,0,17.92-8.192,17.92-17.92
			C169.472,345.349,161.792,337.157,151.552,337.157z M151.552,362.757c-4.096,0-7.68-3.584-7.68-7.68s3.584-7.68,7.68-7.68
			s7.68,3.584,7.68,7.68S156.16,362.757,151.552,362.757z"/>
	</g>
</g>
<g>
	<g>
		<path d="M74.752,337.157c-9.728,0-17.92,8.192-17.92,17.92c0,9.728,8.192,17.92,17.92,17.92s17.92-8.192,17.92-17.92
			C92.672,345.349,84.992,337.157,74.752,337.157z M74.752,362.757c-4.096,0-7.68-3.584-7.68-7.68s3.584-7.68,7.68-7.68
			s7.68,3.584,7.68,7.68S79.36,362.757,74.752,362.757z"/>
	</g>
</g>
<g>
	<g>
		<polygon points="366.592,193.797 348.672,193.797 348.672,234.757 395.776,234.757 		"/>
	</g>
</g>
<g>
	<g>
		<path d="M479.744,259.333l-76.8-102.4c-2.048-2.56-5.12-4.096-8.192-4.096h-76.8c-5.632,0-10.24,4.608-10.24,10.24v46.08h-15.36
			c-2.048,0-4.096,1.536-4.608,3.584l-22.016,66.56c-1.024,3.072,1.536,6.656,4.608,6.656h22.016c3.072,0,5.12,2.048,5.12,5.12
			v40.96h-10.24v-30.72c0-3.072-2.048-5.12-5.12-5.12h-15.36c-3.072,0-5.12,2.048-5.12,5.12v30.72H250.88v-30.72v-10.24v-58.88
			l14.848-23.552c7.68-12.288,7.168-27.648-1.024-39.424l-35.328-50.688c-5.12-9.728-14.848-16.896-25.6-18.432l-128-21.504
			c-11.264-2.048-23.04,2.048-31.232,10.24c-0.512,0.512-1.024,1.024-1.536,2.048l-31.232,50.176
			c-8.704,14.336-6.656,32.768,5.12,44.544l38.4,37.888v57.344H10.24c-5.632,0-10.24,4.608-10.24,10.24v25.6
			c0,1.536,0.512,2.56,0.512,3.584v22.016c0,5.632,4.608,10.24,10.24,10.24h15.36c0,1.024,0,1.536,0,2.56
			c0,26.624,22.016,48.64,48.64,48.64c15.36,0,29.696-7.68,38.4-18.944c8.704,11.264,23.04,18.944,38.4,18.944
			c26.624,0,48.64-22.016,48.64-48.64c0-0.512,0-1.536,0-2.048c1.536,0,3.584,0,5.632,0c6.144,0,14.336,0,25.6,0v14.848
			c0,5.12,3.584,9.728,8.704,10.752c6.656,1.024,11.776-4.096,11.776-10.24v-15.36h56.32v15.36c0,5.632,4.608,10.24,10.24,10.24
			h20.992c8.192,15.36,24.576,25.6,43.008,25.6s34.816-10.24,43.008-25.6h46.592c5.632,0,10.24-4.608,10.24-10.24V265.477
			C481.792,263.429,481.28,260.869,479.744,259.333z M74.752,383.237c-15.36,0-28.16-12.8-28.16-28.16
			c0-15.36,12.8-28.16,28.16-28.16s28.16,12.8,28.16,28.16C102.912,370.437,90.624,383.237,74.752,383.237z M151.552,383.237
			c-15.36,0-28.16-12.8-28.16-28.16c0-15.36,12.8-28.16,28.16-28.16s28.16,12.8,28.16,28.16
			C179.712,370.437,167.424,383.237,151.552,383.237z M229.888,280.837H66.56v-48.128l30.72,30.208
			c6.656,8.192,16.896,12.8,27.648,12.8h79.36c9.728,0,18.432-3.584,25.088-10.24c0,0,0.512-0.512,0.512-1.024V280.837z
			 M343.552,270.597c-3.072,0-5.12-2.048-5.12-5.12c0-3.072,2.048-5.12,5.12-5.12h25.6c3.072,0,5.12,2.048,5.12,5.12
			c0,3.072-2.048,5.12-5.12,5.12H343.552z M381.952,383.237c-15.36,0-28.16-12.8-28.16-28.16c0-0.512,0-1.024,0-1.536
			c0.512-2.56,1.024-5.632,1.536-8.192c3.584-9.728,12.288-16.896,22.528-17.92c1.024,0,2.56-0.512,3.584-0.512
			c1.536,0,2.56,0,3.584,0.512c9.728,1.536,18.432,7.68,22.016,16.896c1.024,3.584,2.048,7.168,2.048,10.24c0,0.512,0,0.512,0,1.024
			C410.112,370.437,397.824,383.237,381.952,383.237z M410.624,242.437c-1.024,1.536-3.072,2.56-4.608,2.56h-62.464
			c-3.072,0-5.12-2.048-5.12-5.12v-51.2c0-3.072,2.048-5.12,5.12-5.12h25.6c1.536,0,3.072,1.024,4.096,2.048l36.352,51.2
			C411.136,238.341,411.136,240.389,410.624,242.437z M461.312,296.197h-10.24v61.44c0,3.072-2.048,5.12-5.12,5.12
			c-3.072,0-5.12-2.048-5.12-5.12v-66.56c0-3.072,2.048-5.12,5.12-5.12h15.36c3.072,0,5.12,2.048,5.12,5.12
			C466.432,294.149,464.384,296.197,461.312,296.197z"/>
	</g>
</g>
<g>
</g>
<g>
</g>
<g>
</g>
<g>
</g>
<g>
</g>
<g>
</g>
<g>
</g>
<g>
</g>
<g>
</g>
<g>
</g>
<g>
</g>
<g>
</g>
<g>
</g>
<g>
</g>
<g>
</g>
</svg>
