<?xml version="1.0" encoding="UTF-8" standalone="no"?>
<!-- Generator: Adobe Illustrator 16.0.0, SVG Export Plug-In . SVG Version: 6.00 Build 0)  -->

<svg
   version="1.1"
   id="Capa_1"
   x="0px"
   y="0px"
   width="612px"
   height="612px"
   viewBox="0 0 612 612"
   style="enable-background:new 0 0 612 612;"
   xml:space="preserve"
   sodipodi:docname="square-white.svg"
   inkscape:version="1.1 (c68e22c387, 2021-05-23)"
   xmlns:inkscape="http://www.inkscape.org/namespaces/inkscape"
   xmlns:sodipodi="http://sodipodi.sourceforge.net/DTD/sodipodi-0.dtd"
   xmlns="http://www.w3.org/2000/svg"
   xmlns:svg="http://www.w3.org/2000/svg"><defs
   id="defs340" /><sodipodi:namedview
   id="namedview338"
   pagecolor="#505050"
   bordercolor="#eeeeee"
   borderopacity="1"
   inkscape:pageshadow="0"
   inkscape:pageopacity="0"
   inkscape:pagecheckerboard="0"
   showgrid="false"
   inkscape:zoom="0.8496732"
   inkscape:cx="305.41154"
   inkscape:cy="305.41154"
   inkscape:window-width="1920"
   inkscape:window-height="1137"
   inkscape:window-x="-8"
   inkscape:window-y="-8"
   inkscape:window-maximized="1"
   inkscape:current-layer="Capa_1" />
<g
   id="g305"
   style="fill:#ffffff">
	<g
   id="_x39__6_"
   style="fill:#ffffff">
		<g
   id="g302"
   style="fill:#ffffff">
			<path
   d="M38.25,535.5v-153H0v153C0,577.747,34.253,612,76.5,612h153v-38.25h-153C55.367,573.75,38.25,556.633,38.25,535.5z      M0,76.5v153h38.25v-153c0-21.114,17.117-38.25,38.25-38.25h153V0h-153C34.253,0,0,34.253,0,76.5z M573.75,535.5     c0,21.133-17.117,38.25-38.25,38.25h-153V612h153c42.247,0,76.5-34.253,76.5-76.5v-153h-38.25V535.5z M535.5,0h-153v38.25h153     c21.133,0,38.25,17.136,38.25,38.25v153H612v-153C612,34.253,577.747,0,535.5,0z"
   id="path300"
   style="fill:#ffffff" />
		</g>
	</g>
</g>
<g
   id="g307">
</g>
<g
   id="g309">
</g>
<g
   id="g311">
</g>
<g
   id="g313">
</g>
<g
   id="g315">
</g>
<g
   id="g317">
</g>
<g
   id="g319">
</g>
<g
   id="g321">
</g>
<g
   id="g323">
</g>
<g
   id="g325">
</g>
<g
   id="g327">
</g>
<g
   id="g329">
</g>
<g
   id="g331">
</g>
<g
   id="g333">
</g>
<g
   id="g335">
</g>
</svg>
