<svg id="Capa_1" enable-background="new 0 0 505.184 505.184" height="512" viewBox="0 0 505.184 505.184" width="512" xmlns="http://www.w3.org/2000/svg"><g><path d="m360.593 122.847h-68.13-81.577-66.196v19.416h215.903z"/><path d="m364.15 145.821h-223.017v-26.531h223.017zm-215.902-7.115h208.788v-12.301h-208.788z"/><path d="m279.421 107.757 13.874-94.725c-26.311-12.628-56.931-12.628-83.242 0l13.874 94.697z"/><path d="m282.516 111.314h-61.663l-14.713-100.402 2.447-1.103c27.236-13.079 58.938-13.079 86.173 0l2.44 1.103zm-55.494-7.114h49.348l13.02-89.005c-23.986-10.765-51.43-10.765-75.416 0z"/><path d="m378.494 388.275h-251.789c-4.485.035-8.111 3.662-8.146 8.146v105.205h268.081v-105.204c-.008-4.496-3.651-8.139-8.146-8.147zm-214.793 43.307h-7.94c-4.167 0-7.545-3.378-7.545-7.545s3.378-7.545 7.545-7.545h7.94c4.167 0 7.545 3.378 7.545 7.545s-3.378 7.545-7.545 7.545zm185.836 0h-7.968c-4.167 0-7.545-3.378-7.545-7.545s3.378-7.545 7.545-7.545h7.926c4.167 0 7.545 3.378 7.545 7.545s-3.378 7.545-7.545 7.545z"/><path d="m390.197 505.184h-275.189v-108.762c.008-6.458 5.239-11.692 11.697-11.704h251.782c6.463.004 11.703 5.24 11.711 11.704v108.762zm-268.074-7.115h260.96v-101.647c-.004-2.536-2.061-4.589-4.596-4.589h-251.782c-2.523.031-4.562 2.066-4.596 4.589zm227.392-62.901h-7.947c-6.132 0-11.103-4.971-11.103-11.102 0-6.132 4.971-11.102 11.103-11.102h7.919c6.132 0 11.102 4.971 11.102 11.102 0 6.132-4.971 11.102-11.102 11.102zm-7.947-15.119c-2.202 0-3.988 1.785-3.988 3.988 0 2.202 1.785 3.988 3.988 3.988h7.919c2.202 0 3.988-1.785 3.988-3.988 0-2.202-1.785-3.988-3.988-3.988zm-177.867 15.091h-7.94c-6.132 0-11.102-4.971-11.102-11.103s4.971-11.102 11.102-11.102h7.94c6.132 0 11.102 4.971 11.102 11.102 0 6.132-4.97 11.103-11.102 11.103zm-7.926-15.091c-2.202 0-3.988 1.785-3.988 3.988 0 2.202 1.785 3.988 3.988 3.988h7.926c2.202 0 3.988-1.785 3.988-3.988 0-2.202-1.785-3.988-3.988-3.988z"/><path d="m197.097 28.763c-27.923 16.576-45.169 46.524-45.491 78.994h57.046z"/><path d="m212.792 111.314h-64.801l.078-3.636c.44-33.691 18.326-64.742 47.249-82.025l4.539-2.618zm-57.458-7.114h49.227l-10.195-69.553c-23.119 15.853-37.545 41.56-39.032 69.553z"/><path d="m364.293 324.179-19.986-6.645v55.679h19.986z"/><path d="m367.85 376.771h-27.1v-64.175l27.1 9.029zm-19.985-7.115h12.87v-42.916l-12.87-4.269z"/><path d="m176.031 315.876v57.337h153.186v-57.352c-3.201-1.307-6.27-2.918-9.164-4.81-21.664 21.486-44.054 32.621-66.643 32.841h-.711c-22.667 0-45.534-10.992-68.045-32.422-2.735 1.728-5.621 3.202-8.623 4.406z"/><path d="m332.775 376.771h-160.302v-63.321l2.234-.896c2.806-1.12 5.504-2.494 8.061-4.105l2.348-1.48 2.006 1.914c21.927 20.86 43.997 31.44 65.597 31.44 22.162-.213 43.755-10.914 64.822-31.81l2.042-2.028 2.405 1.572c2.696 1.766 5.555 3.269 8.538 4.489l2.22.904zm-153.187-7.115h146.072v-51.453c-1.749-.801-3.456-1.689-5.115-2.661-21.807 20.953-44.374 31.689-67.106 31.909h-.711c-22.824 0-45.868-10.608-68.529-31.554-1.487.84-3.024 1.615-4.603 2.326z"/><path d="m306.244 28.763-11.569 78.973h57.046c-.327-32.46-17.567-62.398-45.477-78.973z"/><path d="m355.357 111.314h-64.794l12.927-88.222 4.539 2.618c28.914 17.278 46.799 48.316 47.249 81.997zm-56.562-7.114h49.219c-1.486-27.993-15.912-53.7-39.031-69.553z"/><path d="m125.865 334.787-38.092 14.649c-15.246 19.881-25.808 42.945-30.899 67.476-6.138 27.824-9.293 56.222-9.413 84.715h56.035v-105.177c.026-12.473 9.904-22.696 22.369-23.151z"/><path d="m107.061 505.184h-63.228l.071-3.629c.124-28.747 3.315-57.399 9.519-85.469 5.205-25.048 16.004-48.596 31.589-68.884l.598-.711 43.812-16.848v47.121l-3.422.128c-10.569.346-18.956 9.019-18.946 19.594zm-55.95-7.115h48.835v-101.619c-.009-13.073 9.465-24.223 22.369-26.324v-30.159l-32.358 12.443c-14.581 19.319-24.696 41.63-29.618 65.327-5.853 26.385-8.948 53.307-9.235 80.332z"/><path d="m457.637 501.627c-2.931-67.191-16.207-117.087-40.504-152.254l-37.758-14.542v38.519c12.465.455 22.342 10.678 22.369 23.151v105.127h55.893z"/><path d="m461.351 505.184h-63.157v-108.734c.014-10.566-8.358-19.237-18.918-19.594l-3.422-.128v-47.128l43.613 16.798.626.904c24.709 35.787 38.163 86.209 41.13 154.14zm-56.042-7.115h48.6c-3.194-64.132-15.994-111.871-39.06-145.851l-31.888-12.28v30.124c12.908 2.095 22.388 13.248 22.376 26.324z"/><path d="m347.402 157.354h-189.556v21.977c0 52.345 42.434 94.778 94.778 94.778s94.778-42.434 94.778-94.778z"/><path d="m252.635 277.663c-54.287-.055-98.284-44.045-98.346-98.332v-25.535h196.671v25.535c-.063 54.278-44.047 98.265-98.325 98.332zm-91.232-116.752v18.42c0 50.38 40.841 91.221 91.221 91.221s91.221-40.841 91.221-91.221v-18.42z"/><path d="m160.94 317.534-19.985 6.645v49.034h19.985z"/><path d="m164.498 376.771h-27.121v-55.146l27.1-9.021zm-19.985-7.115h12.87v-47.192l-12.87 4.269z"/><path d="m308.841 300.928c-5.091-6.454-8.4-14.13-9.598-22.262-29.509 14.051-63.779 14.051-93.288 0-1.197 8.364-4.639 16.247-9.961 22.81 19.523 18.256 38.996 27.527 57.238 27.342s37.046-9.641 55.609-27.89z"/><path d="m252.692 332.361c-19.131 0-39.017-9.519-59.102-28.302l-2.44-2.277 2.134-2.576c4.91-6.083 8.086-13.378 9.192-21.116l.711-4.681 4.269 2.021c28.563 13.536 61.694 13.536 90.257 0l4.269-2.013.754 4.66c1.105 7.533 4.161 14.646 8.865 20.633l2.013 2.512-2.298 2.255c-19.338 18.989-38.868 28.715-58.063 28.9zm-51.874-31.305c17.893 16.065 35.332 24.19 51.88 24.19h.527c16.577-.157 33.688-8.474 50.92-24.709-3.508-5.095-6.043-10.795-7.478-16.812-28.134 11.985-59.938 11.985-88.073 0-1.461 6.216-4.101 12.095-7.776 17.317z"/></g></svg>